<?xml version="1.0" encoding="utf-8"?><svg xmlns="http://www.w3.org/2000/svg" xmlns:xlink="http://www.w3.org/1999/xlink"><symbol viewBox="0 0 281.93 281.183" id="Group-11" xmlns="http://www.w3.org/2000/svg"><defs><linearGradient id="aa" y1=".5" x2="1" y2=".5" gradientUnits="objectBoundingBox"><stop offset="0" stop-color="#df44c6"/><stop offset="1" stop-color="#7f3fd9"/></linearGradient></defs><g data-name="Group 11"><g data-name="Group 10" opacity=".75"><path data-name="Path 24" d="M116.617 0a2.994 2.994 0 0 0-2.852 2.1 2.873 2.873 0 0 0-.142.9 3 3 0 1 0 5.992 0 2.963 2.963 0 0 0-.619-1.818A3 3 0 0 0 116.617 0z"/><path data-name="Path 25" d="M102.882 4.661c-1.243.343-2.471.7-3.7 1.082a3 3 0 0 0 3.7-1.082z"/><path data-name="Path 26" d="M132.85 0a3 3 0 1 0 3 3 3 3 0 0 0-3-3z"/><path data-name="Path 27" d="M149.079 0a3 3 0 1 0 3 3 3 3 0 0 0-3-3z"/><path data-name="Path 28" d="M162.907 1.216a3 3 0 1 0 5.4 1.782 3.112 3.112 0 0 0-.125-.85q-2.621-.515-5.275-.932z"/><path data-name="Path 29" d="M181.544 5.994a2.956 2.956 0 0 0 1.094-.209q-1.753-.54-3.521-1.038a2.978 2.978 0 0 0 2.427 1.247z"/><path data-name="Path 30" d="M70.864 18.011q-1.965 1.123-3.9 2.31a3.035 3.035 0 0 0 .952.157 2.992 2.992 0 0 0 2.948-2.467z"/><path data-name="Path 31" d="M84.155 14.484a3 3 0 1 0 3 3 3 3 0 0 0-3-3z"/><path data-name="Path 32" d="M100.388 14.484a3 3 0 1 0 2.994 3 2.995 2.995 0 0 0-2.994-3z"/><path data-name="Path 33" d="M116.617 14.484a3 3 0 1 0 3 3 3 3 0 0 0-3-3z"/><path data-name="Path 34" d="M132.85 14.484a3 3 0 1 0 3 3 3 3 0 0 0-3-3z"/><path data-name="Path 35" d="M149.079 14.484a3 3 0 1 0 3 3 3 3 0 0 0-3-3z"/><path data-name="Path 36" d="M165.311 14.484a3 3 0 1 0 3 3 3 3 0 0 0-3-3z"/><path data-name="Path 37" d="M181.545 14.484a3 3 0 1 0 3 3 3 3 0 0 0-3-3z"/><path data-name="Path 38" d="M197.777 14.484a3 3 0 1 0 2.994 3 3 3 0 0 0-2.994-3z"/><path data-name="Path 39" d="M214.007 20.477a3 3 0 0 0 .783-.107q-1.83-1.126-3.7-2.2a3 3 0 0 0 2.917 2.307z"/><path data-name="Path 40" d="M53.583 29.644q-2.313 1.813-4.538 3.724a3 3 0 1 0 4.538-3.724z"/><path data-name="Path 41" d="M67.922 28.97a3 3 0 1 0 3 3 3 3 0 0 0-3-3z"/><path data-name="Path 42" d="M84.155 28.97a3 3 0 1 0 3 3 3 3 0 0 0-3-3z"/><path data-name="Path 43" d="M100.388 28.97a3 3 0 1 0 2.994 3 2.993 2.993 0 0 0-2.994-3z"/><path data-name="Path 44" d="M116.617 28.97a3 3 0 1 0 3 3 3 3 0 0 0-3-3z"/><path data-name="Path 45" d="M132.85 28.97a3 3 0 1 0 3 3 3 3 0 0 0-3-3z"/><path data-name="Path 46" d="M149.079 28.97a3 3 0 1 0 3 3 3 3 0 0 0-3-3z"/><path data-name="Path 47" d="M165.311 28.97a3 3 0 1 0 3 3 3 3 0 0 0-3-3z"/><path data-name="Path 48" d="M181.545 28.97a3 3 0 1 0 3 3 3 3 0 0 0-3-3z"/><path data-name="Path 49" d="M197.777 28.97a3 3 0 1 0 2.994 3 2.994 2.994 0 0 0-2.994-3z"/><path data-name="Path 50" d="M214.01 28.97a3 3 0 1 0 3 3 3 3 0 0 0-3-3z"/><path data-name="Path 51" d="M230.239 34.963a2.992 2.992 0 0 0 2.563-1.452q-2.247-1.928-4.574-3.762a2.994 2.994 0 0 0 2.011 5.214z"/><path data-name="Path 52" d="M33.588 48.787a3 3 0 0 0 3.994-4.456q-2.043 2.187-3.994 4.456z"/><path data-name="Path 53" d="M51.693 43.452a3 3 0 1 0 3 3 3 3 0 0 0-3-3z"/><path data-name="Path 54" d="M67.922 43.452a3 3 0 1 0 3 3 3 3 0 0 0-3-3z"/><path data-name="Path 55" d="M84.155 43.452a3 3 0 1 0 3 3 3 3 0 0 0-3-3z"/><path data-name="Path 56" d="M100.388 43.452a3 3 0 1 0 2.994 3 2.994 2.994 0 0 0-2.994-3z"/><path data-name="Path 57" d="M116.617 43.452a3 3 0 1 0 3 3 3 3 0 0 0-3-3z"/><path data-name="Path 58" d="M132.85 43.452a3 3 0 1 0 3 3 3 3 0 0 0-3-3z"/><path data-name="Path 59" d="M149.079 43.452a3 3 0 1 0 3 3 3 3 0 0 0-3-3z"/><path data-name="Path 60" d="M165.311 43.452a3 3 0 1 0 3 3 3 3 0 0 0-3-3z"/><path data-name="Path 61" d="M181.545 43.452a3 3 0 1 0 3 3 3 3 0 0 0-3-3z"/><path data-name="Path 62" d="M197.777 43.452a3 3 0 1 0 2.994 3 3 3 0 0 0-2.994-3z"/><path data-name="Path 63" d="M214.01 43.452a3 3 0 1 0 3 3 3 3 0 0 0-3-3z"/><path data-name="Path 64" d="M230.239 43.452a3 3 0 1 0 3 3 3 3 0 0 0-3-3z"/><path data-name="Path 65" d="M246.474 49.444a2.989 2.989 0 0 0 1.716-.542q-1.939-2.259-3.963-4.435a2.994 2.994 0 0 0 2.247 4.977z"/><path data-name="Path 66" d="M35.46 57.936a3 3 0 1 0 3 3 3 3 0 0 0-3-3z"/><path data-name="Path 67" d="M51.693 57.936a3 3 0 1 0 3 3 3 3 0 0 0-3-3z"/><path data-name="Path 68" d="M67.922 57.936a3 3 0 1 0 3 3 3 3 0 0 0-3-3z"/><path data-name="Path 69" d="M84.155 57.936a3 3 0 1 0 3 3 3 3 0 0 0-3-3z"/><path data-name="Path 70" d="M100.388 57.936a3 3 0 1 0 2.994 3 2.993 2.993 0 0 0-2.994-3z"/><path data-name="Path 71" d="M116.617 57.936a3 3 0 1 0 3 3 3 3 0 0 0-3-3z"/><path data-name="Path 72" d="M132.85 57.936a3 3 0 1 0 3 3 3 3 0 0 0-3-3z"/><path data-name="Path 73" d="M149.079 57.936a3 3 0 1 0 3 3 3 3 0 0 0-3-3z"/><path data-name="Path 74" d="M165.311 57.936a3 3 0 1 0 3 3 3 3 0 0 0-3-3z"/><path data-name="Path 75" d="M181.545 57.936a3 3 0 1 0 3 3 3 3 0 0 0-3-3z"/><path data-name="Path 76" d="M197.777 57.936a3 3 0 1 0 2.994 3 2.995 2.995 0 0 0-2.994-3z"/><path data-name="Path 77" d="M214.01 57.936a3 3 0 1 0 3 3 3 3 0 0 0-3-3z"/><path data-name="Path 78" d="M230.239 57.936a3 3 0 1 0 3 3 2.995 2.995 0 0 0-3-3z"/><path data-name="Path 79" d="M246.474 57.936a3 3 0 1 0 2.992 3 3 3 0 0 0-2.992-3z"/><path data-name="Path 80" d="M19.227 72.42a3 3 0 1 0 3 3 3 3 0 0 0-3-3z"/><path data-name="Path 81" d="M35.46 72.42a3 3 0 1 0 3 3 3 3 0 0 0-3-3z"/><path data-name="Path 82" d="M51.693 72.42a3 3 0 1 0 3 3 3 3 0 0 0-3-3z"/><path data-name="Path 83" d="M67.922 72.42a3 3 0 1 0 3 3 2.994 2.994 0 0 0-3-3z"/><path data-name="Path 84" d="M84.155 72.42a3 3 0 1 0 3 3 2.995 2.995 0 0 0-3-3z"/><path data-name="Path 85" d="M100.388 72.42a3 3 0 1 0 2.994 3 2.992 2.992 0 0 0-2.994-3z"/><path data-name="Path 86" d="M116.617 72.42a3 3 0 1 0 3 3 2.994 2.994 0 0 0-3-3z"/><path data-name="Path 87" d="M132.85 72.42a3 3 0 1 0 3 3 2.995 2.995 0 0 0-3-3z"/><path data-name="Path 88" d="M149.079 72.42a3 3 0 1 0 3 3 2.995 2.995 0 0 0-3-3z"/><path data-name="Path 89" d="M165.311 72.42a3 3 0 1 0 3 3 2.994 2.994 0 0 0-3-3z"/><path data-name="Path 90" d="M181.545 72.42a3 3 0 1 0 3 3 2.995 2.995 0 0 0-3-3z"/><path data-name="Path 91" d="M197.777 72.42a3 3 0 1 0 2.994 3 2.993 2.993 0 0 0-2.994-3z"/><path data-name="Path 92" d="M214.01 72.42a3 3 0 1 0 3 3 3 3 0 0 0-3-3z"/><path data-name="Path 93" d="M230.239 72.42a3 3 0 1 0 3 3 2.993 2.993 0 0 0-3-3z"/><path data-name="Path 94" d="M246.474 72.42a3 3 0 1 0 2.992 3 2.995 2.995 0 0 0-2.992-3z"/><path data-name="Path 95" d="M262.705 72.42a3 3 0 1 0 2.994 3 3 3 0 0 0-2.994-3z"/><path data-name="Path 96" d="M19.227 86.902a3 3 0 1 0 3 3 3 3 0 0 0-3-3z"/><path data-name="Path 97" d="M35.46 86.902a3 3 0 1 0 3 3 3 3 0 0 0-3-3z"/><path data-name="Path 98" d="M51.693 86.902a3 3 0 1 0 3 3 3 3 0 0 0-3-3z"/><path data-name="Path 99" d="M67.922 86.902a3 3 0 1 0 3 3 3 3 0 0 0-3-3z"/><path data-name="Path 100" d="M84.155 86.902a3 3 0 1 0 3 3 3 3 0 0 0-3-3z"/><path data-name="Path 101" d="M100.388 86.902a3 3 0 1 0 2.994 3 2.994 2.994 0 0 0-2.994-3z"/><path data-name="Path 102" d="M116.617 86.902a3 3 0 1 0 3 3 3 3 0 0 0-3-3z"/><path data-name="Path 103" d="M132.85 86.902a3 3 0 1 0 3 3 3 3 0 0 0-3-3z"/><path data-name="Path 104" d="M149.079 86.902a3 3 0 1 0 3 3 3 3 0 0 0-3-3z"/><path data-name="Path 105" d="M165.311 86.902a3 3 0 1 0 3 3 3 3 0 0 0-3-3z"/><path data-name="Path 106" d="M181.545 86.902a3 3 0 1 0 3 3 3 3 0 0 0-3-3z"/><path data-name="Path 107" d="M197.777 86.902a3 3 0 1 0 2.994 3 3 3 0 0 0-2.994-3z"/><path data-name="Path 108" d="M214.01 86.902a3 3 0 1 0 3 3 3 3 0 0 0-3-3z"/><path data-name="Path 109" d="M230.239 86.902a3 3 0 1 0 3 3 3 3 0 0 0-3-3z"/><path data-name="Path 110" d="M246.474 86.902a3 3 0 1 0 2.992 3 3 3 0 0 0-2.992-3z"/><path data-name="Path 111" d="M262.705 86.902a3 3 0 1 0 2.994 3 3 3 0 0 0-2.994-3z"/><path data-name="Path 112" d="M4.889 102.06q-.744 2.618-1.391 5.274a2.991 2.991 0 0 0 1.391-5.274z"/><path data-name="Path 113" d="M19.227 101.386a3 3 0 1 0 3 3 3 3 0 0 0-3-3z"/><path data-name="Path 114" d="M35.46 101.386a3 3 0 1 0 3 3 3 3 0 0 0-3-3z"/><path data-name="Path 115" d="M51.693 101.386a3 3 0 1 0 3 3 3 3 0 0 0-3-3z"/><path data-name="Path 116" d="M67.922 101.386a3 3 0 1 0 3 3 3 3 0 0 0-3-3z"/><path data-name="Path 117" d="M84.155 101.386a3 3 0 1 0 3 3 3 3 0 0 0-3-3z"/><path data-name="Path 118" d="M100.388 101.386a3 3 0 1 0 2.994 3 2.994 2.994 0 0 0-2.994-3z"/><path data-name="Path 119" d="M116.617 101.386a3 3 0 1 0 3 3 3 3 0 0 0-3-3z"/><path data-name="Path 120" d="M132.85 101.386a3 3 0 1 0 3 3 3 3 0 0 0-3-3z"/><path data-name="Path 121" d="M149.079 101.386a3 3 0 1 0 3 3 3 3 0 0 0-3-3z"/><path data-name="Path 122" d="M165.311 101.386a3 3 0 1 0 3 3 3 3 0 0 0-3-3z"/><path data-name="Path 123" d="M181.545 101.386a3 3 0 1 0 3 3 3 3 0 0 0-3-3z"/><path data-name="Path 124" d="M197.777 101.386a3 3 0 1 0 2.994 3 3 3 0 0 0-2.994-3z"/><path data-name="Path 125" d="M214.01 101.386a3 3 0 1 0 3 3 3 3 0 0 0-3-3z"/><path data-name="Path 126" d="M230.239 101.386a3 3 0 1 0 3 3 3 3 0 0 0-3-3z"/><path data-name="Path 127" d="M246.474 101.386a3 3 0 1 0 2.992 3 3 3 0 0 0-2.992-3z"/><path data-name="Path 128" d="M262.705 101.386a3 3 0 1 0 2.994 3 3 3 0 0 0-2.994-3z"/><path data-name="Path 129" d="M278.17 107.278q-.618-2.54-1.328-5.04a2.995 2.995 0 0 0 1.328 5.04z"/><path data-name="Path 130" d="M2.998 115.87a2.98 2.98 0 0 0-1.354.326q-.417 2.385-.76 4.795a3 3 0 1 0 2.115-5.12z"/><path data-name="Path 131" d="M19.227 115.87a3 3 0 1 0 3 3 3 3 0 0 0-3-3z"/><path data-name="Path 132" d="M35.46 115.87a3 3 0 1 0 3 3 3 3 0 0 0-3-3z"/><path data-name="Path 133" d="M51.693 115.87a3 3 0 1 0 3 3 3 3 0 0 0-3-3z"/><path data-name="Path 134" d="M67.922 115.87a3 3 0 1 0 3 3 2.995 2.995 0 0 0-3-3z"/><path data-name="Path 135" d="M84.155 115.87a3 3 0 1 0 3 3 3 3 0 0 0-3-3z"/><path data-name="Path 136" d="M100.388 115.87a3 3 0 1 0 2.994 3 2.993 2.993 0 0 0-2.994-3z"/><path data-name="Path 137" d="M116.617 115.87a3 3 0 1 0 3 3 2.995 2.995 0 0 0-3-3z"/><path data-name="Path 138" d="M132.85 115.87a3 3 0 1 0 3 3 3 3 0 0 0-3-3z"/><path data-name="Path 139" d="M149.079 115.87a3 3 0 1 0 3 3 3 3 0 0 0-3-3z"/><path data-name="Path 140" d="M165.311 115.87a3 3 0 1 0 3 3 2.995 2.995 0 0 0-3-3z"/><path data-name="Path 141" d="M181.545 115.87a3 3 0 1 0 3 3 3 3 0 0 0-3-3z"/><path data-name="Path 142" d="M197.777 115.87a3 3 0 1 0 2.994 3 2.994 2.994 0 0 0-2.994-3z"/><path data-name="Path 143" d="M214.01 115.87a3 3 0 1 0 3 3 3 3 0 0 0-3-3z"/><path data-name="Path 144" d="M230.239 115.87a3 3 0 1 0 3 3 2.994 2.994 0 0 0-3-3z"/><path data-name="Path 145" d="M246.474 115.87a3 3 0 1 0 2.992 3 3 3 0 0 0-2.992-3z"/><path data-name="Path 146" d="M262.705 115.87a3 3 0 1 0 2.994 3 3 3 0 0 0-2.994-3z"/><path data-name="Path 147" d="M278.936 121.862a2.983 2.983 0 0 0 1.889-.672q-.356-2.575-.806-5.115a3 3 0 1 0-1.082 5.787z"/><path data-name="Path 148" d="M2.998 130.35a3 3 0 1 0 3 2.994 3 3 0 0 0-3-2.994z"/><path data-name="Path 149" d="M19.227 130.35a3 3 0 1 0 3 2.994 3 3 0 0 0-3-2.994z"/><path data-name="Path 150" d="M35.46 130.35a3 3 0 1 0 3 2.994 3 3 0 0 0-3-2.994z"/><path data-name="Path 151" d="M51.693 130.35a3 3 0 1 0 3 2.994 3 3 0 0 0-3-2.994z"/><path data-name="Path 152" d="M67.922 130.35a3 3 0 1 0 3 2.994 2.995 2.995 0 0 0-3-2.994z"/><path data-name="Path 153" d="M84.155 130.35a3 3 0 1 0 3 2.994 3 3 0 0 0-3-2.994z"/><path data-name="Path 154" d="M100.388 130.35a3 3 0 1 0 2.994 2.994 2.993 2.993 0 0 0-2.994-2.994z"/><path data-name="Path 155" d="M116.617 130.35a3 3 0 1 0 3 2.994 2.995 2.995 0 0 0-3-2.994z"/><path data-name="Path 156" d="M132.85 130.35a3 3 0 1 0 3 2.994 3 3 0 0 0-3-2.994z"/><path data-name="Path 157" d="M149.079 130.35a3 3 0 1 0 3 2.994 3 3 0 0 0-3-2.994z"/><path data-name="Path 158" d="M165.311 130.35a3 3 0 1 0 3 2.994 2.995 2.995 0 0 0-3-2.994z"/><path data-name="Path 159" d="M181.545 130.35a3 3 0 1 0 3 2.994 3 3 0 0 0-3-2.994z"/><path data-name="Path 160" d="M197.777 130.35a3 3 0 1 0 2.994 2.994 2.994 2.994 0 0 0-2.994-2.994z"/><path data-name="Path 161" d="M214.01 130.35a3 3 0 1 0 3 2.994 3 3 0 0 0-3-2.994z"/><path data-name="Path 162" d="M230.239 130.35a3 3 0 1 0 3 2.994 2.994 2.994 0 0 0-3-2.994z"/><path data-name="Path 163" d="M246.474 130.35a3 3 0 1 0 2.992 2.994 3 3 0 0 0-2.992-2.994z"/><path data-name="Path 164" d="M262.705 130.35a3 3 0 1 0 2.994 2.994 3 3 0 0 0-2.994-2.994z"/><path data-name="Path 165" d="M278.936 136.35a3 3 0 1 0-3-3 3 3 0 0 0 3 3z"/><path data-name="Path 166" d="M2.998 144.837a3 3 0 1 0 3 3 3 3 0 0 0-3-3z"/><path data-name="Path 167" d="M19.227 144.837a3 3 0 1 0 3 3 3 3 0 0 0-3-3z"/><path data-name="Path 168" d="M35.46 144.837a3 3 0 1 0 3 3 3 3 0 0 0-3-3z"/><path data-name="Path 169" d="M51.693 144.837a3 3 0 1 0 3 3 3 3 0 0 0-3-3z"/><path data-name="Path 170" d="M67.922 144.837a3 3 0 1 0 3 3 3 3 0 0 0-3-3z"/><path data-name="Path 171" d="M84.155 144.837a3 3 0 1 0 3 3 3 3 0 0 0-3-3z"/><path data-name="Path 172" d="M100.388 144.837a3 3 0 1 0 2.994 3 2.993 2.993 0 0 0-2.994-3z"/><path data-name="Path 173" d="M116.617 144.837a3 3 0 1 0 3 3 3 3 0 0 0-3-3z"/><path data-name="Path 174" d="M132.85 144.837a3 3 0 1 0 3 3 3 3 0 0 0-3-3z"/><path data-name="Path 175" d="M149.079 144.837a3 3 0 1 0 3 3 3 3 0 0 0-3-3z"/><path data-name="Path 176" d="M165.311 144.837a3 3 0 1 0 3 3 3 3 0 0 0-3-3z"/><path data-name="Path 177" d="M181.545 144.837a3 3 0 1 0 3 3 3 3 0 0 0-3-3z"/><path data-name="Path 178" d="M197.777 144.837a3 3 0 1 0 2.994 3 2.995 2.995 0 0 0-2.994-3z"/><path data-name="Path 179" d="M214.01 144.837a3 3 0 1 0 3 3 3 3 0 0 0-3-3z"/><path data-name="Path 180" d="M230.239 144.837a3 3 0 1 0 3 3 2.995 2.995 0 0 0-3-3z"/><path data-name="Path 181" d="M246.474 144.837a3 3 0 1 0 2.992 3 3 3 0 0 0-2.992-3z"/><path data-name="Path 182" d="M262.705 144.837a3 3 0 1 0 2.994 3 3 3 0 0 0-2.994-3z"/><path data-name="Path 183" d="M278.936 144.837a3 3 0 1 0 2.994 3 3 3 0 0 0-2.994-3z"/><path data-name="Path 184" d="M2.998 159.321a2.992 2.992 0 0 0-2.172.933q.325 2.359.724 4.686a3 3 0 1 0 1.448-5.618z"/><path data-name="Path 185" d="M19.227 159.321a3 3 0 1 0 3 3 3 3 0 0 0-3-3z"/><path data-name="Path 186" d="M35.46 159.321a3 3 0 1 0 3 3 3 3 0 0 0-3-3z"/><path data-name="Path 187" d="M51.693 159.321a3 3 0 1 0 3 3 3 3 0 0 0-3-3z"/><path data-name="Path 188" d="M67.922 159.321a3 3 0 1 0 3 3 3 3 0 0 0-3-3z"/><path data-name="Path 189" d="M84.155 159.321a3 3 0 1 0 3 3 3 3 0 0 0-3-3z"/><path data-name="Path 190" d="M100.388 159.321a3 3 0 1 0 2.994 3 2.993 2.993 0 0 0-2.994-3z"/><path data-name="Path 191" d="M116.617 159.321a3 3 0 1 0 3 3 3 3 0 0 0-3-3z"/><path data-name="Path 192" d="M132.85 159.321a3 3 0 1 0 3 3 3 3 0 0 0-3-3z"/><path data-name="Path 193" d="M149.079 159.321a3 3 0 1 0 3 3 3 3 0 0 0-3-3z"/><path data-name="Path 194" d="M165.311 159.321a3 3 0 1 0 3 3 3 3 0 0 0-3-3z"/><path data-name="Path 195" d="M181.545 159.321a3 3 0 1 0 3 3 3 3 0 0 0-3-3z"/><path data-name="Path 196" d="M197.777 159.321a3 3 0 1 0 2.994 3 2.994 2.994 0 0 0-2.994-3z"/><path data-name="Path 197" d="M214.01 159.321a3 3 0 1 0 3 3 3 3 0 0 0-3-3z"/><path data-name="Path 198" d="M230.239 159.321a3 3 0 1 0 3 3 2.994 2.994 0 0 0-3-3z"/><path data-name="Path 199" d="M246.474 159.321a3 3 0 1 0 2.992 3 3 3 0 0 0-2.992-3z"/><path data-name="Path 200" d="M262.705 159.321a3 3 0 1 0 2.994 3 3 3 0 0 0-2.994-3z"/><path data-name="Path 201" d="M275.938 162.317a3 3 0 0 0 3 3 2.954 2.954 0 0 0 1.17-.239q.434-2.5.78-5.029a3 3 0 0 0-4.948 2.272z"/><path data-name="Path 202" d="M3.373 173.83q.646 2.71 1.4 5.379a2.989 2.989 0 0 0-1.4-5.379z"/><path data-name="Path 203" d="M19.227 173.803a3 3 0 1 0 3 3 3 3 0 0 0-3-3z"/><path data-name="Path 204" d="M35.46 173.803a3 3 0 1 0 3 3 3 3 0 0 0-3-3z"/><path data-name="Path 205" d="M51.693 173.803a3 3 0 1 0 3 3 3 3 0 0 0-3-3z"/><path data-name="Path 206" d="M67.922 173.803a3 3 0 1 0 3 3 3 3 0 0 0-3-3z"/><path data-name="Path 207" d="M84.155 173.803a3 3 0 1 0 3 3 3 3 0 0 0-3-3z"/><path data-name="Path 208" d="M100.388 173.803a3 3 0 1 0 2.994 3 2.995 2.995 0 0 0-2.994-3z"/><path data-name="Path 209" d="M116.617 173.803a3 3 0 1 0 3 3 3 3 0 0 0-3-3z"/><path data-name="Path 210" d="M132.85 173.803a3 3 0 1 0 3 3 3 3 0 0 0-3-3z"/><path data-name="Path 211" d="M149.079 173.803a3 3 0 1 0 3 3 3 3 0 0 0-3-3z"/><path data-name="Path 212" d="M165.311 173.803a3 3 0 1 0 3 3 3 3 0 0 0-3-3z"/><path data-name="Path 213" d="M181.545 173.803a3 3 0 1 0 3 3 3 3 0 0 0-3-3z"/><path data-name="Path 214" d="M197.777 173.803a3 3 0 1 0 2.994 3 3 3 0 0 0-2.994-3z"/><path data-name="Path 215" d="M214.01 173.803a3 3 0 1 0 3 3 3 3 0 0 0-3-3z"/><path data-name="Path 216" d="M230.239 173.803a3 3 0 1 0 3 3 3 3 0 0 0-3-3z"/><path data-name="Path 217" d="M246.474 173.803a3 3 0 1 0 2.992 3 3 3 0 0 0-2.992-3z"/><path data-name="Path 218" d="M262.705 173.803a3 3 0 1 0 2.994 3 3 3 0 0 0-2.994-3z"/><path data-name="Path 219" d="M275.938 176.801a2.972 2.972 0 0 0 1.017 2.243q.715-2.566 1.345-5.172a3 3 0 0 0-2.362 2.929z"/><path data-name="Path 220" d="M19.227 188.287a3 3 0 1 0 3 3 3 3 0 0 0-3-3z"/><path data-name="Path 221" d="M35.46 188.287a3 3 0 1 0 3 3 3 3 0 0 0-3-3z"/><path data-name="Path 222" d="M51.693 188.287a3 3 0 1 0 3 3 3 3 0 0 0-3-3z"/><path data-name="Path 223" d="M67.922 188.287a3 3 0 1 0 3 3 3 3 0 0 0-3-3z"/><path data-name="Path 224" d="M84.155 188.287a3 3 0 1 0 3 3 3 3 0 0 0-3-3z"/><path data-name="Path 225" d="M100.388 188.287a3 3 0 1 0 2.994 3 2.993 2.993 0 0 0-2.994-3z"/><path data-name="Path 226" d="M116.617 188.287a3 3 0 1 0 3 3 3 3 0 0 0-3-3z"/><path data-name="Path 227" d="M132.85 188.287a3 3 0 1 0 3 3 3 3 0 0 0-3-3z"/><path data-name="Path 228" d="M149.079 188.287a3 3 0 1 0 3 3 3 3 0 0 0-3-3z"/><path data-name="Path 229" d="M165.311 188.287a3 3 0 1 0 3 3 3 3 0 0 0-3-3z"/><path data-name="Path 230" d="M181.545 188.287a3 3 0 1 0 3 3 3 3 0 0 0-3-3z"/><path data-name="Path 231" d="M197.777 188.287a3 3 0 1 0 2.994 3 2.994 2.994 0 0 0-2.994-3z"/><path data-name="Path 232" d="M214.01 188.287a3 3 0 1 0 3 3 3 3 0 0 0-3-3z"/><path data-name="Path 233" d="M230.239 188.287a3 3 0 1 0 3 3 2.994 2.994 0 0 0-3-3z"/><path data-name="Path 234" d="M246.474 188.287a3 3 0 1 0 2.992 3 3 3 0 0 0-2.992-3z"/><path data-name="Path 235" d="M262.705 188.287a3 3 0 1 0 2.994 3 3 3 0 0 0-2.994-3z"/><path data-name="Path 236" d="M19.227 202.771a3 3 0 1 0 3 3 3 3 0 0 0-3-3z"/><path data-name="Path 237" d="M35.46 202.771a3 3 0 1 0 3 3 3 3 0 0 0-3-3z"/><path data-name="Path 238" d="M51.693 202.771a3 3 0 1 0 3 3 3 3 0 0 0-3-3z"/><path data-name="Path 239" d="M67.922 202.771a3 3 0 1 0 3 3 2.994 2.994 0 0 0-3-3z"/><path data-name="Path 240" d="M84.155 202.771a3 3 0 1 0 3 3 2.995 2.995 0 0 0-3-3z"/><path data-name="Path 241" d="M100.388 202.771a3 3 0 1 0 2.994 3 2.992 2.992 0 0 0-2.994-3z"/><path data-name="Path 242" d="M116.617 202.771a3 3 0 1 0 3 3 2.994 2.994 0 0 0-3-3z"/><path data-name="Path 243" d="M132.85 202.771a3 3 0 1 0 3 3 2.995 2.995 0 0 0-3-3z"/><path data-name="Path 244" d="M149.079 202.771a3 3 0 1 0 3 3 2.995 2.995 0 0 0-3-3z"/><path data-name="Path 245" d="M165.311 202.771a3 3 0 1 0 3 3 2.994 2.994 0 0 0-3-3z"/><path data-name="Path 246" d="M181.545 202.771a3 3 0 1 0 3 3 2.995 2.995 0 0 0-3-3z"/><path data-name="Path 247" d="M197.777 202.771a3 3 0 1 0 2.994 3 2.993 2.993 0 0 0-2.994-3z"/><path data-name="Path 248" d="M214.01 202.771a3 3 0 1 0 3 3 3 3 0 0 0-3-3z"/><path data-name="Path 249" d="M230.239 202.771a3 3 0 1 0 3 3 2.993 2.993 0 0 0-3-3z"/><path data-name="Path 250" d="M246.474 202.771a3 3 0 1 0 2.992 3 2.995 2.995 0 0 0-2.992-3z"/><path data-name="Path 251" d="M262.705 202.771a3 3 0 1 0 2.994 3 3 3 0 0 0-2.994-3z"/><path data-name="Path 252" d="M35.46 217.255a3 3 0 1 0 3 3 3 3 0 0 0-3-3z"/><path data-name="Path 253" d="M51.693 217.255a3 3 0 1 0 3 3 3 3 0 0 0-3-3z"/><path data-name="Path 254" d="M67.922 217.255a3 3 0 1 0 3 3 3 3 0 0 0-3-3z"/><path data-name="Path 255" d="M84.155 217.255a3 3 0 1 0 3 3 3 3 0 0 0-3-3z"/><path data-name="Path 256" d="M100.388 217.255a3 3 0 1 0 2.994 3 2.993 2.993 0 0 0-2.994-3z"/><path data-name="Path 257" d="M116.617 217.255a3 3 0 1 0 3 3 3 3 0 0 0-3-3z"/><path data-name="Path 258" d="M132.85 217.255a3 3 0 1 0 3 3 3 3 0 0 0-3-3z"/><path data-name="Path 259" d="M149.079 217.255a3 3 0 1 0 3 3 3 3 0 0 0-3-3z"/><path data-name="Path 260" d="M165.311 217.255a3 3 0 1 0 3 3 3 3 0 0 0-3-3z"/><path data-name="Path 261" d="M181.545 217.255a3 3 0 1 0 3 3 3 3 0 0 0-3-3z"/><path data-name="Path 262" d="M197.777 217.255a3 3 0 1 0 2.994 3 2.994 2.994 0 0 0-2.994-3z"/><path data-name="Path 263" d="M214.01 217.255a3 3 0 1 0 3 3 3 3 0 0 0-3-3z"/><path data-name="Path 264" d="M230.239 217.255a3 3 0 1 0 3 3 2.994 2.994 0 0 0-3-3z"/><path data-name="Path 265" d="M246.474 217.255a3 3 0 1 0 2.992 3 3 3 0 0 0-2.992-3z"/><path data-name="Path 266" d="M35.46 231.737a2.99 2.99 0 0 0-2.115.873c1.3 1.515 2.622 3.009 3.979 4.467a2.994 2.994 0 0 0-1.864-5.341z"/><path data-name="Path 267" d="M51.693 231.737a3 3 0 1 0 3 3 3 3 0 0 0-3-3z"/><path data-name="Path 268" d="M67.922 231.737a3 3 0 1 0 3 3 3 3 0 0 0-3-3z"/><path data-name="Path 269" d="M84.155 231.737a3 3 0 1 0 3 3 3 3 0 0 0-3-3z"/><path data-name="Path 270" d="M100.388 231.737a3 3 0 1 0 2.994 3 2.995 2.995 0 0 0-2.994-3z"/><path data-name="Path 271" d="M116.617 231.737a3 3 0 1 0 3 3 3 3 0 0 0-3-3z"/><path data-name="Path 272" d="M132.85 231.737a3 3 0 1 0 3 3 3 3 0 0 0-3-3z"/><path data-name="Path 273" d="M149.079 231.737a3 3 0 1 0 3 3 3 3 0 0 0-3-3z"/><path data-name="Path 274" d="M165.311 231.737a3 3 0 1 0 3 3 3 3 0 0 0-3-3z"/><path data-name="Path 275" d="M181.545 231.737a3 3 0 1 0 3 3 3 3 0 0 0-3-3z"/><path data-name="Path 276" d="M197.777 231.737a3 3 0 1 0 2.994 3 3 3 0 0 0-2.994-3z"/><path data-name="Path 277" d="M214.01 231.737a3 3 0 1 0 3 3 3 3 0 0 0-3-3z"/><path data-name="Path 278" d="M230.239 231.737a3 3 0 1 0 3 3 3 3 0 0 0-3-3z"/><path data-name="Path 279" d="M243.476 234.735a2.98 2.98 0 0 0 .99 2.222q2.037-2.2 3.977-4.473a2.99 2.99 0 0 0-4.967 2.251z"/><path data-name="Path 280" d="M51.692 246.221a2.992 2.992 0 0 0-2.806 1.956q2.146 1.842 4.366 3.6a2.993 2.993 0 0 0-1.559-5.551z"/><path data-name="Path 281" d="M67.922 246.221a3 3 0 1 0 3 3 3 3 0 0 0-3-3z"/><path data-name="Path 282" d="M84.155 246.221a3 3 0 1 0 3 3 3 3 0 0 0-3-3z"/><path data-name="Path 283" d="M100.388 246.221a3 3 0 1 0 2.994 3 2.994 2.994 0 0 0-2.994-3z"/><path data-name="Path 284" d="M116.617 246.221a3 3 0 1 0 3 3 3 3 0 0 0-3-3z"/><path data-name="Path 285" d="M132.85 246.221a3 3 0 1 0 3 3 3 3 0 0 0-3-3z"/><path data-name="Path 286" d="M149.079 246.221a3 3 0 1 0 3 3 3 3 0 0 0-3-3z"/><path data-name="Path 287" d="M165.311 246.221a3 3 0 1 0 3 3 3 3 0 0 0-3-3z"/><path data-name="Path 288" d="M181.545 246.221a3 3 0 1 0 3 3 3 3 0 0 0-3-3z"/><path data-name="Path 289" d="M197.777 246.221a3 3 0 1 0 2.994 3 3 3 0 0 0-2.994-3z"/><path data-name="Path 290" d="M214.01 246.221a3 3 0 1 0 3 3 3 3 0 0 0-3-3z"/><path data-name="Path 291" d="M230.239 246.221a3 3 0 0 0-1.7 5.465q2.262-1.79 4.444-3.67a3 3 0 0 0-2.744-1.795z"/><path data-name="Path 292" d="M67.922 260.705a3 3 0 0 0-1.429.362c1.456.9 2.937 1.782 4.425 2.632a2.993 2.993 0 0 0-2.996-2.994z"/><path data-name="Path 293" d="M84.155 260.705a3 3 0 1 0 3 3 3 3 0 0 0-3-3z"/><path data-name="Path 294" d="M100.388 260.705a3 3 0 1 0 2.994 3 2.994 2.994 0 0 0-2.994-3z"/><path data-name="Path 295" d="M116.617 260.705a3 3 0 1 0 3 3 3 3 0 0 0-3-3z"/><path data-name="Path 296" d="M132.85 260.705a3 3 0 1 0 3 3 3 3 0 0 0-3-3z"/><path data-name="Path 297" d="M149.079 260.705a3 3 0 1 0 3 3 3 3 0 0 0-3-3z"/><path data-name="Path 298" d="M165.311 260.705a3 3 0 1 0 3 3 3 3 0 0 0-3-3z"/><path data-name="Path 299" d="M181.545 260.705a3 3 0 1 0 3 3 3 3 0 0 0-3-3z"/><path data-name="Path 300" d="M197.777 260.705a3 3 0 1 0 2.994 3 3 3 0 0 0-2.994-3z"/><path data-name="Path 301" d="M211.016 263.554q2.161-1.238 4.276-2.554a2.944 2.944 0 0 0-1.289-.3 2.992 2.992 0 0 0-2.987 2.854z"/><path data-name="Path 302" d="M100.387 275.187a2.96 2.96 0 0 0-1.764.58q2.261.707 4.555 1.337a2.993 2.993 0 0 0-2.791-1.917z"/><path data-name="Path 303" d="M116.617 275.187a3 3 0 0 0-2.619 4.448q2.281.437 4.594.8a3 3 0 0 0-1.975-5.251z"/><path data-name="Path 304" d="M132.85 275.187a3 3 0 1 0 3 3 3 3 0 0 0-3-3z"/><path data-name="Path 305" d="M149.079 275.187a3 3 0 1 0 3 3 3 3 0 0 0-3-3z"/><path data-name="Path 306" d="M165.311 275.187a2.995 2.995 0 0 0-2.007 5.216 137.78 137.78 0 0 0 4.659-.826 2.964 2.964 0 0 0 .347-1.393 3 3 0 0 0-2.999-2.997z"/><path data-name="Path 307" d="M178.78 277.028q2.241-.623 4.456-1.318a3 3 0 0 0-4.456 1.318z"/></g></g></symbol><symbol id="Logo" viewBox="0 0 1104.4 457" xml:space="preserve" xmlns="http://www.w3.org/2000/svg"><style>.bst3{fill:#707070}.bst4{fill:#fff}.bst5{fill:#141414}</style><circle cx="227.7" cy="227.7" r="220.2" id="bLogo_black-1_2_"/><path class="bst3" d="M720.7 437.3h-27c-9.8 0-17.7-7.8-18-18h9c0 5 4 9 9 9h27c5 0 9-4.1 9-9 0-5-4.1-9-9-9h-27c-9.6 0-18-7.8-18-18 0-9.5 7.9-18 18-18h27c9.6 0 17.7 8 18 18h-9c0-5-4.1-9-9-9h-27c-5 0-9 4.1-9 9 0 5 4 9 9 9h27c9.5 0 18 8 18 18 0 9.6-7.9 18-18 18zm74.1-54v54h-9v-54h-27v-9h63v9h-27zm100.1-9h9v45c0 9.5-7.9 18-18 18h-27c-9.6 0-18-7.8-18-18v-45h9v45c0 5 4.1 9 9 9h27c5 0 9-4.1 9-9v-45zm92 45c0 9.5-7.9 18-18 18h-45v-63h45c9.6 0 17.7 8 18 18v27zm-9-27c0-5-4.1-9-9-9h-36v45h36c5 0 9-4.1 9-9v-27zm28-18h9v63h-9v-63zm91.1 45c0 9.9-8.1 18-18 18h-27c-10 0-18-8-18-18v-27c0-9.9 8.1-18 18-18h27c9.5 0 18 8.2 18 18v27zm-9-27c0-5-4.1-9-9-9h-27c-5 0-9 4.1-9 9v27c0 5 4 9 9 9h27c5 0 9-4.1 9-9v-27z"/><path class="bst4" d="M189.3 137H110c-25 0-45.3 18.3-50.1 41l27.1 9.6v-.4c.5-13.7 11.7-24.7 25.5-24.7h74.1c14.1 0 25.6 11.5 25.6 25.6h28.2c-.8-28.4-23.8-51.1-51.1-51.1zM61.5 216.4l25.5 9.7.3-10-25.8-9.5-2.6-1v9.8l2.6 1zm0-18.9l25.6 9.8.2-10.1-25.8-9.6-2.5-.9c0 .5-.1.9-.1 1.4v8.4l2.6 1zM87 245v-10l-25.5-9.5-2.6-1v9.8l14.7 5.6z"/><path class="bst4" d="M138.2 213.7h-2.6v25.6h76.7v25.6c0 14.1-11.5 25.6-25.6 25.6h-74.1C98.5 290.5 87 279 87 264.9V253l-2.6-1-25.5-9.9v22.7c0 28.9 23.8 51.1 51.1 51.1h79.3c28.6 0 51.1-24 51.1-51.1v-51.1H138.2zm228.6-28.6h-92.1v129.6h20.5v-37h56.3l35.8 37h15.3v-13.1l-24.9-25.7c14.8-5.2 24.9-19.4 24.9-35.2v-18.5c0-20.6-17-37.1-35.8-37.1zm-71.5 74.1v-55.5h69c9.8 0 17.9 8.3 17.9 18.5v18.5c0 10.2-8.1 18.5-17.9 18.5h-69z"/><path class="bst5" d="M474.1 185.1h-2.6v129.6h127.8v-18.5H492v-37h89.5v-18.5H492v-37.1h107.3v-18.5h-2.5zm166.6 0h-2.6v129.6h127.8v-18.5H658.6v-37H748v-18.5h-89.4v-37.1h107.3v-18.5h-2.6zm273.9 0H912v95.3l-86.8-95.3h-20.5v129.6h20.5V218l86.8 96.7h20.5V185.1h-2.6zm147.8 55.6h-53.7c-9.8 0-17.9-8.3-17.9-18.5s8.1-18.5 17.9-18.5h51.1c9.8 0 17.9 8.3 17.9 18.5h20.5c-.5-20.6-16.6-37-35.8-37h-56.3c-20 0-35.8 17.4-35.8 37 0 20.9 16.6 37 35.8 37h53.7c9.8 0 17.9 8.3 17.9 18.5s-8.1 18.5-17.9 18.5h-51.1c-9.8 0-17.9-8.3-17.9-18.5h-20.5c.5 20.9 16.3 37 35.8 37h56.3c20 0 35.8-17.4 35.8-37 0-20.6-17-37-35.8-37z"/></symbol><symbol viewBox="0 0 10 10" id="pause" xmlns="http://www.w3.org/2000/svg"><path fill-rule="evenodd" clip-rule="evenodd" d="M3 0H0v10h3V0zm7 0H7v10h3V0z"/></symbol><symbol viewBox="0 0 7 10" id="play" xmlns="http://www.w3.org/2000/svg"><path fill-rule="evenodd" clip-rule="evenodd" d="M0 0l7 5-7 5V0z"/></symbol><symbol viewBox="0 0 384 384" id="triangle" xmlns="http://www.w3.org/2000/svg"><path d="M0 21.333l192 341.333L384 21.333H0zM72 64h240L192 277.333 72 64z"/></symbol><symbol viewBox="0 0 2106.758 2099.073" id="widget" xmlns="http://www.w3.org/2000/svg"><defs><style>.fa{fill:#fff}.fb,.fd{fill:#14e2a4}.fc{fill:#1469eb}.fd{stroke:#1ae5be;stroke-width:.3px}</style></defs><g transform="translate(-340.233 -202)"><rect class="fa" width="81" height="81" rx="18" transform="rotate(-125 1545.722 534.653)"/><rect class="fa" width="81" height="81" rx="18" transform="rotate(-133 1500.869 535.493)"/><path class="fb" d="M2132.49 1934.38a.807.807 0 0 1 .636-.234l6.557.514a.81.81 0 1 1-.124 1.616l-5.77-.453-1.23 11.978a.809.809 0 1 1-1.609-.166l1.31-12.765a.805.805 0 0 1 .23-.49zm0 0"/><path class="fc" d="M2121.633 1923.146l-2.226.874a.808.808 0 0 0-.456.456l-.991 2.503a23.374 23.374 0 0 0 5.107 25.362l7.84 7.84a.809.809 0 0 0 .807.202l17.61-5.371a.807.807 0 0 0 .543-.544l5.05-17.296a.809.809 0 0 0-.205-.799l-7.997-7.997a23.42 23.42 0 0 0-25.082-5.23zm31.597 14.034l-4.795 16.418-16.728 5.096-7.495-7.495a21.759 21.759 0 0 1-4.754-23.617l.004-.004.865-2.179 1.9-.745a21.8 21.8 0 0 1 23.344 4.866zm0 0"/><path class="fb" d="M2000.792 2046.352l.088-.061a10.018 10.018 0 0 1 7.697-1.546 10.655 10.655 0 0 1 8.353 12.207 10.022 10.022 0 0 1-4.224 6.614 10.353 10.353 0 0 1-14.34-2.87 10.534 10.534 0 0 1-1.713-7.79 10.02 10.02 0 0 1 4.135-6.557zm11.296 16.14a8.8 8.8 0 0 0 3.63-5.752 9.422 9.422 0 0 0-7.382-10.787 8.8 8.8 0 0 0-10.467 7.163 9.308 9.308 0 0 0 1.52 6.879 9.118 9.118 0 0 0 12.624 2.551l.082-.057zm0 0"/><path class="fc" d="M2009.093 2037.408l-16.331-3.413a.7.7 0 0 0-.84.588l-2.379 16.514a17.82 17.82 0 0 0 .349 7.168 16.555 16.555 0 0 0 3.089 6.155 17.558 17.558 0 0 0 10.595 6.29 16.5 16.5 0 0 0 19.148-13.408 17.56 17.56 0 0 0-2.288-12.106 16.555 16.555 0 0 0-4.727-5.008 17.828 17.828 0 0 0-6.617-2.78zm10.14 8.516a16.152 16.152 0 0 1 2.105 11.135 15.1 15.1 0 0 1-17.515 12.264 16.15 16.15 0 0 1-9.744-5.786 15.151 15.151 0 0 1-2.826-5.636 16.42 16.42 0 0 1-.316-6.6l2.27-15.775 15.6 3.263a16.43 16.43 0 0 1 6.098 2.555 15.159 15.159 0 0 1 4.33 4.583zm0 0"/><path class="fc" d="M2009.19 2052.644l-2.275 1.592-1.592-2.274a.573.573 0 1 0-.938.657l1.593 2.274-2.15 1.505a.573.573 0 1 0 .657.938l2.15-1.505 1.504 2.15a.573.573 0 1 0 .938-.658l-1.506-2.152 2.273-1.592a.573.573 0 1 0-.656-.938zm0 0"/><rect class="fa" width="81" height="81" rx="18" transform="rotate(-163.02 698.153 1040.43)"/><rect class="fa" width="81" height="81" rx="18" transform="rotate(-169.98 715.719 1086.3)"/><rect class="fa" width="81" height="81" rx="18" transform="rotate(-85 1912.994 425.708)"/><rect class="fa" width="81" height="81" rx="18" transform="rotate(-127 813.368 832.371)"/><rect class="fa" width="81" height="81" rx="18" transform="rotate(-144 726.523 926.84)"/><rect class="fa" width="81" height="81" rx="18" transform="rotate(-153 718.693 982.324)"/><rect class="fa" width="81" height="81" rx="18" transform="rotate(-98 1746.683 495.255)"/><rect class="fa" width="81" height="81" rx="18" transform="rotate(-106.02 1687.186 500.086)"/><rect class="fa" width="81" height="81" rx="18" transform="rotate(-123 1520.664 597.86)"/><path class="fb" d="M1388.34 2266.072l-43.765-3.83a.732.732 0 1 0-.128 1.46l43.766 3.828a.732.732 0 1 0 .127-1.458zm-34.827-9.755a4.769 4.769 0 0 0 2.238-.34 4.787 4.787 0 1 0 .742-8.475 4.787 4.787 0 1 0-2.98 8.815zm8.104-4.097a3.323 3.323 0 1 1-3.02-3.6 3.322 3.322 0 0 1 3.02 3.6zm-7.397-3.983a3.323 3.323 0 0 1 .831.184 4.787 4.787 0 0 0-.56 6.4 3.322 3.322 0 1 1-.271-6.584zm0 0"/><path class="fc" d="M1347.872 2271.56l35.43 3.1a4.922 4.922 0 0 0 5.325-4.47l1.824-20.84a4.922 4.922 0 0 0-4.47-5.325l-35.429-3.1a4.922 4.922 0 0 0-5.328 4.468l-1.824 20.84a4.922 4.922 0 0 0 4.472 5.327zm-1.187-26.039a3.456 3.456 0 0 1 3.74-3.138l35.43 3.1a3.456 3.456 0 0 1 3.137 3.74l-1.823 20.84a3.456 3.456 0 0 1-3.74 3.138l-35.43-3.1a3.456 3.456 0 0 1-3.137-3.74zm0 0"/><path class="fb" d="M1042.25 2187.509a.841.841 0 0 1 .502.412l4.355 8.193a.849.849 0 0 1-1.498.796l-3.968-7.463-13.549 6.812a.846.846 0 0 1-.76-1.512l14.292-7.184a.848.848 0 0 1 .627-.054zm-7.542-24.793a1.336 1.336 0 0 1 .902.926l.004.019 1.792 7.136 4.6 1.406a.846.846 0 0 1-.494 1.618l-5.052-1.544a.847.847 0 0 1-.573-.602l-1.77-7.025-5.397 4.834a.845.845 0 0 1-.811.178l-9.715-2.97a2.783 2.783 0 0 0-3.472 1.846l-5.72 18.71a2.783 2.783 0 0 0 1.846 3.47l5.78 1.767a.846.846 0 0 1-.496 1.618l-5.779-1.767a4.477 4.477 0 0 1-2.967-5.583l5.721-18.713a4.477 4.477 0 0 1 5.584-2.97l9.258 2.831 5.476-4.913.015-.014a1.337 1.337 0 0 1 1.265-.262zm0 0"/><path class="fc" d="M1058.527 2181.93l-10.274-3.142-2.053-8.146-.005-.02a1.409 1.409 0 0 0-2.273-.694l-.015.013-6.256 5.606-10.56-3.229a4.961 4.961 0 0 0-6.187 3.29l-6.484 21.209a4.961 4.961 0 0 0 3.29 6.187l31.437 9.611a4.961 4.961 0 0 0 6.187-3.29l6.484-21.208a4.961 4.961 0 0 0-3.29-6.188zm-4.811 26.9a3.266 3.266 0 0 1-4.076 2.167l-31.435-9.61a3.267 3.267 0 0 1-2.167-4.075l6.484-21.21a3.267 3.267 0 0 1 4.076-2.17l11.01 3.367a.846.846 0 0 0 .813-.18l6.253-5.602 2.049 8.15a.846.846 0 0 0 .573.602l10.735 3.282a3.267 3.267 0 0 1 2.167 4.074zm0 0"/><path class="fb" d="M637.545 1935.945a.669.669 0 0 1-.082.942l-5.417 4.546a5.645 5.645 0 1 0 7.258 8.649l5.417-4.546a.669.669 0 1 1 .86 1.024l-5.418 4.546a6.983 6.983 0 1 1-8.976-10.698l5.417-4.545a.668.668 0 0 1 .941.082zm7.048-16.372a5.971 5.971 0 0 1-.736 8.404l-2.348 1.97a.669.669 0 0 1-.859-1.024l2.348-1.97a4.627 4.627 0 0 0-5.948-7.09l-2.348 1.97a.669.669 0 1 1-.86-1.023l2.348-1.97a5.971 5.971 0 0 1 8.403.733zm0 0"/><path class="fc" d="M629.227 1919.3l-.01.007a2.26 2.26 0 0 0-.027 2.954l6.09 7.258-3.86 4.284-.009.006a2.567 2.567 0 0 0-.032 3.35l12.02 14.327a2.567 2.567 0 0 0 3.308.552l.01-.008 21.9-13.718a.591.591 0 0 0 .075-.055 4.5 4.5 0 0 0 .553-6.325l-7.939-9.462a3.88 3.88 0 0 0-.187-4.735l-11.845-14.116a3.878 3.878 0 0 0-5.457-.478.639.639 0 0 0-.067.065zm31.106 4.092l7.887 9.4a3.156 3.156 0 0 1-.355 4.412l-21.854 13.688a1.235 1.235 0 0 1-1.587-.266l-12.02-14.325a1.235 1.235 0 0 1 .011-1.61l3.735-4.137 3.123 3.722a2.26 2.26 0 0 0 2.912.485l.009-.008zm-12.084-18.913l11.844 14.115a2.539 2.539 0 0 1-.279 3.545l-18.32 11.477a.929.929 0 0 1-1.194-.202l-10.082-12.015a.929.929 0 0 1 .008-1.21l14.484-16.05a2.539 2.539 0 0 1 3.539.34zm0 0"/><path class="fb" d="M1851.068 2173.284a.856.856 0 0 0 .724-.377l9.146-13.539 17.078-.88a.856.856 0 0 0-.085-1.706l-17.004.871-17.005-27.213 16.051-.826a.858.858 0 0 0-.089-1.713l-17.504.901c-.013 0-.026.003-.038.004a.5.5 0 0 0-.049.006l-.067.014c-.022.005-.03.006-.045.011l-.07.025-.04.016a.838.838 0 0 0-.08.043l-.019.012a.945.945 0 0 0-.081.059l-.02.012a.768.768 0 0 0-.058.055l-.021.023q-.026.029-.05.06l-.017.023-.009.006-9.385 13.894a.857.857 0 0 0-.016.933l18.047 28.88a.856.856 0 0 0 .71.403zm-17.008-29.712l8.337-12.342 17.05 27.286-8.337 12.342zm0 0"/><path class="fc" d="M1859.203 2129.213l18.042 28.874a.856.856 0 0 0 1.433.028l9.388-13.897a.856.856 0 0 0 .016-.933l-18.043-28.874a.856.856 0 0 0-1.432-.028l-9.385 13.894a.857.857 0 0 0-.017.934zm1.747-.435l8.334-12.345 17.052 27.288-8.337 12.342zm0 0"/><path class="fb" d="M1701.018 2202.331a.807.807 0 0 1 .672.08l5.61 3.435a.81.81 0 1 1-.844 1.384l-4.936-3.023-6.534 10.114a.809.809 0 1 1-1.358-.878l6.962-10.78a.805.805 0 0 1 .428-.332zm0 0"/><path class="fc" d="M1696.444 2187.392l-2.38-.232a.808.808 0 0 0-.613.2l-2.02 1.78a23.374 23.374 0 0 0-6.964 24.916l3.426 10.544a.809.809 0 0 0 .628.547l18.129 3.21a.807.807 0 0 0 .731-.239l12.352-13.118a.809.809 0 0 0 .18-.805l-3.495-10.756a23.42 23.42 0 0 0-19.974-16.047zm21.782 26.849l-11.726 12.452-17.218-3.054-3.276-10.081a21.759 21.759 0 0 1 6.486-23.2l.006-.003 1.76-1.548 2.03.198a21.8 21.8 0 0 1 18.591 14.934zm0 0"/><path class="fb" d="M895.877 2126.88a.79.79 0 0 1 .318.293l13.873 22.58a.792.792 0 1 1-1.348.83l-13.62-22.169-25.948 2.007a.792.792 0 1 1-.122-1.578l26.426-2.046a.79.79 0 0 1 .421.084zm0 0"/><path class="fc" d="M870.44 2135.594l33.338 16.987a4.705 4.705 0 0 0 6.322-2.054l10.775-21.147a4.705 4.705 0 0 0-2.054-6.321l-33.338-16.988a4.706 4.706 0 0 0-6.322 2.054l-10.775 21.147a4.706 4.706 0 0 0 2.054 6.322zm10.132-26.75a3.121 3.121 0 0 1 4.191-1.361l33.339 16.987a3.121 3.121 0 0 1 1.363 4.192l-10.776 21.147a3.12 3.12 0 0 1-4.192 1.362l-33.339-16.988a3.12 3.12 0 0 1-1.362-4.192zm0 0"/><path class="fb" d="M1532.839 2242.31l.106-.015a10.018 10.018 0 0 1 7.56 2.118 10.655 10.655 0 0 1 1.901 14.668 10.022 10.022 0 0 1-6.767 3.975 10.353 10.353 0 0 1-11.473-9.067 10.534 10.534 0 0 1 2.01-7.718 10.02 10.02 0 0 1 6.66-3.965zm2.737 19.51a8.8 8.8 0 0 0 5.846-3.478 9.422 9.422 0 0 0-1.68-12.962 8.8 8.8 0 0 0-12.578 1.63 9.308 9.308 0 0 0-1.768 6.82 9.118 9.118 0 0 0 10.089 8.003l.099-.014zm0 0"/><path class="fc" d="M1544.297 2238.11l-13.002-10.456a.7.7 0 0 0-1.016.143l-9.616 13.634a17.82 17.82 0 0 0-2.944 6.545 16.555 16.555 0 0 0-.042 6.887 17.558 17.558 0 0 0 6.585 10.414 16.5 16.5 0 0 0 23.148-3.253 17.56 17.56 0 0 0 3.458-11.826 16.555 16.555 0 0 0-1.938-6.608 17.828 17.828 0 0 0-4.634-5.48zm5.168 12.19a16.152 16.152 0 0 1-3.18 10.878 15.1 15.1 0 0 1-21.173 2.976 16.15 16.15 0 0 1-6.055-9.58 15.151 15.151 0 0 1 .04-6.304 16.42 16.42 0 0 1 2.716-6.024l9.184-13.025 12.417 9.989a16.43 16.43 0 0 1 4.274 5.045 15.159 15.159 0 0 1 1.777 6.05zm0 0"/><path class="fc" d="M1537.466 2251.728l-2.75.387-.386-2.75a.573.573 0 1 0-1.133.16l.386 2.75-2.598.364a.573.573 0 1 0 .159 1.134l2.598-.365.366 2.598a.573.573 0 1 0 1.133-.159l-.365-2.601 2.749-.387a.573.573 0 1 0-.16-1.134zm-358.697-15.13l3.631 3.77-1.248 7.07a.617.617 0 0 0 .5.715l4.278.755a.617.617 0 0 0 .715-.5l.543-3.074 9.24 9.591a.617.617 0 0 0 .714.127l22.868-11.169a.617.617 0 0 0-.164-1.162l-5.326-.94 4.12-23.33a.617.617 0 0 0-.5-.715l-23.147-4.089a.617.617 0 1 0-.215 1.216l22.542 3.982-4.121 23.327a.617.617 0 0 0 .5.716l4.065.718-20.761 10.146-16.093-16.707 4.181.61a.616.616 0 0 0 .699-.504l.983-5.567a.617.617 0 1 0-1.216-.215l-.878 4.97-5.373-.783a.617.617 0 0 0-.534 1.039zm6.768 10.988l-3.063-.541.986-5.581 2.669 2.77zm0 0"/><path class="fb" d="M1189.632 2218.05a.428.428 0 0 1 .295.204l1.771 3.009a.43.43 0 1 1-.74.435l-1.558-2.647-5.58 3.108a.43.43 0 0 1-.418-.75l5.947-3.312a.427.427 0 0 1 .283-.047zm0 0"/><path class="fd" d="M1191.213 2209.914l-1.057-.702a.43.43 0 0 0-.336-.06l-1.39.33a12.403 12.403 0 0 0-9.474 9.934l-1.023 5.792a.43.43 0 0 0 .157.413l7.694 6.023a.428.428 0 0 0 .402.071l9.054-3.068a.43.43 0 0 0 .285-.331l1.044-5.91a12.424 12.424 0 0 0-5.356-12.492zm3.51 18.002l-8.592 2.91-7.305-5.721.978-5.537a11.543 11.543 0 0 1 8.819-9.25l1.21-.288.904.6a11.565 11.565 0 0 1 4.987 11.627zm0 0"/><path class="fb" d="M744.533 2028.33l23.595 17.777a3.793 3.793 0 0 0-2.644 6.835 3.872 3.872 0 0 0 3.621.561l-10.75 14.268a.744.744 0 1 0 1.19.896l10.748-14.267a3.832 3.832 0 0 0 .301 1.742 3.888 3.888 0 0 0 1.24 1.584 3.793 3.793 0 0 0 5.84-4.427l4.231 3.189a.744.744 0 1 0 .896-1.19l-7.568-5.701 4.925-.691a.744.744 0 1 0-.208-1.474l-4.921.692 5.766-7.653a.744.744 0 0 0-1.19-.896l-5.765 7.653-.933-6.635a.744.744 0 1 0-1.474.207l.933 6.635-26.937-20.295a.744.744 0 0 0-.896 1.189zm31.311 24.812a2.31 2.31 0 0 1-3.115 3.395 2.401 2.401 0 0 1-.767-.977 2.317 2.317 0 0 1 .043-1.924l1.494-3.062zm-7.059-5.318l3.115 1.543-2.53 2.281a2.369 2.369 0 0 1-3.485-3.164 2.33 2.33 0 0 1 2.9-.66zm0 0"/><path class="fc" d="M733.563 2049.957l30.575 23.036a5.002 5.002 0 0 0 7.005-.985l16.093-21.359a5.002 5.002 0 0 0-.985-7.005l-30.578-23.038a5.002 5.002 0 0 0-7.005.985l-16.093 21.358a5.002 5.002 0 0 0 .988 7.008zm16.3-27.466a3.513 3.513 0 0 1 4.915-.69l30.574 23.035a3.513 3.513 0 0 1 .692 4.915l-16.093 21.359a3.513 3.513 0 0 1-4.917.694l-30.578-23.038a3.513 3.513 0 0 1-.685-4.916zm0 0"/><rect class="fa" width="81" height="81" rx="18" transform="rotate(-79 801.81 286.55)"/><rect class="fa" width="81" height="81" rx="18" transform="rotate(-86 811.233 411.62)"/><rect class="fa" width="81" height="81" rx="18" transform="translate(340.234 1284.013)"/><rect class="fa" width="81" height="81" rx="18" transform="rotate(-43 1013.521 -447.063)"/><rect class="fa" width="81" height="81" rx="18" transform="rotate(-60 854.292 -51.431)"/><rect class="fa" width="81" height="81" rx="18" transform="rotate(-69.03 832.43 136.675)"/><rect class="fa" width="81" height="81" rx="18" transform="rotate(-14 6124.029 -731.431)"/><rect class="fa" width="81" height="81" rx="18" transform="rotate(-22 4393.733 -243.41)"/><rect class="fa" width="81" height="81" rx="18" transform="rotate(-39 2781.828 207.765)"/><path class="fb" d="M374.898 1346.514l-.767-43.926a.732.732 0 1 0-1.464.025l.767 43.927a.732.732 0 1 0 1.464-.026zm6.06-35.656a4.769 4.769 0 0 0 .573 2.19 4.787 4.787 0 1 0 8.506-.148 4.787 4.787 0 1 0-9.079-2.042zm4.922 7.631a3.323 3.323 0 1 1 3.265-3.38 3.322 3.322 0 0 1-3.265 3.38zm3.188-7.773a3.323 3.323 0 0 1-.096.846 4.787 4.787 0 0 0-6.424.112 3.322 3.322 0 1 1 6.52-.958zm0 0"/><path class="fc" d="M365.21 1306.841l.62 35.56a4.922 4.922 0 0 0 5.002 4.83l20.917-.366a4.922 4.922 0 0 0 4.829-5l-.62-35.56a4.922 4.922 0 0 0-5.002-4.833l-20.917.365a4.922 4.922 0 0 0-4.829 5.004zm25.772-3.902a3.456 3.456 0 0 1 3.512 3.391l.62 35.56a3.456 3.456 0 0 1-3.391 3.511l-20.917.365a3.456 3.456 0 0 1-3.512-3.39l-.62-35.56a3.456 3.456 0 0 1 3.391-3.512zm0 0"/><path class="fb" d="M416.854 994.109a.841.841 0 0 1-.358.541l-7.692 5.188a.849.849 0 0 1-.949-1.407l7.008-4.726-8.19-12.763a.846.846 0 0 1 1.423-.913l8.639 13.461a.848.848 0 0 1 .12.619zm23.87-10.094a1.336 1.336 0 0 1-.827.993l-.019.007-6.909 2.528-.918 4.722a.846.846 0 0 1-1.66-.323l1.007-5.185a.847.847 0 0 1 .539-.633l6.8-2.495-5.37-4.862a.845.845 0 0 1-.263-.788l1.939-9.972a2.783 2.783 0 0 0-2.199-3.26l-19.204-3.733a2.783 2.783 0 0 0-3.26 2.199l-1.153 5.932a.846.846 0 0 1-1.66-.323l1.152-5.932a4.477 4.477 0 0 1 5.243-3.535l19.209 3.734a4.477 4.477 0 0 1 3.536 5.243l-1.847 9.503 5.46 4.932.014.014a1.337 1.337 0 0 1 .393 1.23zm0 0"/><path class="fc" d="M424.105 1009.712l2.05-10.547 7.887-2.893.019-.007a1.409 1.409 0 0 0 .453-2.333l-.015-.013-6.229-5.636 2.107-10.84a4.961 4.961 0 0 0-3.918-5.809l-21.77-4.231a4.961 4.961 0 0 0-5.81 3.918l-6.273 32.269a4.961 4.961 0 0 0 3.919 5.81l21.77 4.231a4.961 4.961 0 0 0 5.81-3.92zm-27.257-1.973a3.266 3.266 0 0 1-2.58-3.827l6.272-32.268a3.267 3.267 0 0 1 3.825-2.58l21.771 4.231a3.267 3.267 0 0 1 2.584 3.827l-2.197 11.302a.846.846 0 0 0 .264.789l6.225 5.633-7.891 2.89a.846.846 0 0 0-.539.632l-2.142 11.02a3.267 3.267 0 0 1-3.825 2.58zm0 0"/><path class="fb" d="M624.74 565.337a.669.669 0 0 1-.947.016l-5.084-4.914a5.645 5.645 0 1 0-7.847 8.118l5.085 4.915a.669.669 0 1 1-.93.961l-5.084-4.915a6.983 6.983 0 1 1 9.705-10.04l5.085 4.914a.668.668 0 0 1 .016.945zm17.016 5.307a5.971 5.971 0 0 1-8.436.142l-2.203-2.13a.669.669 0 0 1 .929-.961l2.204 2.13a4.627 4.627 0 0 0 6.431-6.654l-2.204-2.13a.669.669 0 1 1 .93-.961l2.203 2.13a5.971 5.971 0 0 1 .146 8.434zm0 0"/><path class="fc" d="M640.429 555.332l-.01-.008a2.26 2.26 0 0 0-2.94.28l-6.584 6.811-4.663-3.394-.007-.007a2.567 2.567 0 0 0-3.336.316l-12.997 13.446a2.567 2.567 0 0 0-.205 3.347l.009.009 15.922 20.354a.591.591 0 0 0 .062.069 4.5 4.5 0 0 0 6.349-.108l8.584-8.88a3.88 3.88 0 0 0 4.69-.68l12.807-13.249a3.878 3.878 0 0 0-.093-5.477.639.639 0 0 0-.071-.06zm-.834 31.363l-8.528 8.822a3.156 3.156 0 0 1-4.425.106l-15.888-20.311a1.235 1.235 0 0 1 .1-1.606l12.996-13.446a1.235 1.235 0 0 1 1.602-.156l4.504 3.284-3.377 3.493a2.26 2.26 0 0 0-.18 2.947l.01.008zm17.553-13.987l-12.807 13.249a2.539 2.539 0 0 1-3.554.091l-13.321-17.027a.929.929 0 0 1 .077-1.208l10.901-11.277a.929.929 0 0 1 1.205-.118l17.47 12.735a2.539 2.539 0 0 1 .029 3.555zm0 0"/><path class="fb" d="M515.53 1797.008a.856.856 0 0 0 .45.68l14.427 7.68 2.665 16.894a.856.856 0 0 0 1.688-.263l-2.649-16.823 25.287-19.767 2.504 15.88a.858.858 0 0 0 1.694-.269l-2.73-17.317-.01-.037a.5.5 0 0 0-.01-.048l-.02-.065c-.008-.021-.01-.03-.017-.043l-.032-.067-.02-.038a.838.838 0 0 0-.051-.076l-.014-.018a.945.945 0 0 0-.067-.074l-.014-.018a.768.768 0 0 0-.061-.053l-.025-.018q-.031-.023-.064-.043l-.026-.015-.006-.008-14.805-7.879a.857.857 0 0 0-.93.082l-26.835 20.978a.856.856 0 0 0-.325.75zm27.772-20.032l13.15 6.999-25.354 19.82-13.15-6.999zm0 0"/><path class="fc" d="M560.22 1800.48l-26.83 20.973a.856.856 0 0 0 .123 1.428l14.807 7.882a.856.856 0 0 0 .93-.082l26.83-20.973a.856.856 0 0 0-.123-1.428l-14.804-7.88a.857.857 0 0 0-.931.082zm.616 1.692l13.153 6.997-25.356 19.82-13.15-6.998zm0 0"/><path class="fb" d="M470.973 1650.816a.807.807 0 0 1-.01.677l-2.829 5.937a.81.81 0 1 1-1.464-.694l2.49-5.225-10.741-5.44a.809.809 0 1 1 .731-1.443l11.448 5.798a.805.805 0 0 1 .375.39zm0 0"/><path class="fc" d="M485.352 1644.706l-.018-2.392a.808.808 0 0 0-.262-.589l-1.982-1.822a23.374 23.374 0 0 0-25.508-4.322l-10.129 4.51a.809.809 0 0 0-.478.681l-1.296 18.365a.807.807 0 0 0 .313.703l14.337 10.913a.809.809 0 0 0 .82.095l10.332-4.6a23.42 23.42 0 0 0 13.871-21.542zm-24.425 24.47l-13.61-10.361 1.238-17.443 9.683-4.312a21.759 21.759 0 0 1 23.752 4.026l.002.005 1.724 1.588.015 2.04a21.8 21.8 0 0 1-12.909 20.05zm0 0"/><path class="fb" d="M461.851 842.198a.79.79 0 0 1-.259.347l-21.006 16.158a.792.792 0 1 1-.966-1.254l20.624-15.863-4.71-25.597a.792.792 0 1 1 1.558-.286l4.798 26.068a.79.79 0 0 1-.04.427zm0 0"/><path class="fc" d="M450.525 817.81l-13.409 34.933a4.705 4.705 0 0 0 2.704 6.072l22.157 8.505a4.705 4.705 0 0 0 6.072-2.703l13.41-34.932a4.706 4.706 0 0 0-2.704-6.072l-22.158-8.506a4.706 4.706 0 0 0-6.072 2.704zm27.663 7.28a3.121 3.121 0 0 1 1.792 4.027l-13.41 34.932a3.121 3.121 0 0 1-4.025 1.794l-22.158-8.506a3.12 3.12 0 0 1-1.793-4.027l13.41-34.932a3.12 3.12 0 0 1 4.026-1.793zm0 0"/><path class="fb" d="M413.633 1487.738l.026.104a10.018 10.018 0 0 1-1.316 7.74 10.655 10.655 0 0 1-14.389 3.423 10.022 10.022 0 0 1-4.66-6.313 10.353 10.353 0 0 1 7.818-12.359 10.534 10.534 0 0 1 7.885 1.192 10.02 10.02 0 0 1 4.64 6.21zm-19.116 4.76a8.8 8.8 0 0 0 4.07 5.451 9.422 9.422 0 0 0 12.715-3.026 8.8 8.8 0 0 0-2.936-12.338 9.308 9.308 0 0 0-6.967-1.046 9.118 9.118 0 0 0-6.905 10.87l.024.098zm0 0"/><path class="fc" d="M419.01 1498.693l9.038-14.024a.7.7 0 0 0-.248-.995l-14.565-8.138a17.82 17.82 0 0 0-6.817-2.244 16.555 16.555 0 0 0-6.853.678 17.558 17.558 0 0 0-9.67 7.637 16.5 16.5 0 0 0 5.656 22.682 17.56 17.56 0 0 0 12.122 2.203 16.555 16.555 0 0 0 6.37-2.62 17.828 17.828 0 0 0 4.966-5.18zm-11.585 6.414a16.152 16.152 0 0 1-11.15-2.025 15.1 15.1 0 0 1-5.173-20.747 16.15 16.15 0 0 1 8.894-7.023 15.151 15.151 0 0 1 6.274-.618 16.42 16.42 0 0 1 6.275 2.07l13.914 7.773-8.637 13.393a16.43 16.43 0 0 1-4.57 4.778 15.159 15.159 0 0 1-5.831 2.4zm0 0"/><path class="fc" d="M404.75 1493.323l-.671-2.694 2.693-.672a.573.573 0 1 0-.277-1.11l-2.693.671-.635-2.546a.573.573 0 1 0-1.111.277l.635 2.546-2.546.635a.573.573 0 1 0 .277 1.11l2.549-.635.671 2.694a.573.573 0 1 0 1.111-.277zm-22.463-358.31l-3.368 4.006-7.16-.5a.617.617 0 0 0-.658.572l-.303 4.332a.617.617 0 0 0 .572.659l3.114.218-8.568 10.19a.617.617 0 0 0-.05.725l13.5 21.565a.617.617 0 0 0 1.139-.284l.377-5.395 23.626 1.652a.617.617 0 0 0 .659-.572l1.639-23.443a.617.617 0 1 0-1.231-.086l-1.596 22.83-23.626-1.653a.617.617 0 0 0-.658.573l-.288 4.117-12.264-19.579 14.924-17.75-.168 4.22a.616.616 0 0 0 .574.641l5.638.395a.617.617 0 1 0 .086-1.231l-5.033-.352.216-5.424a.617.617 0 0 0-1.09-.422zm-10.215 7.88l.217-3.1 5.652.395-2.474 2.943zm0 0"/><path class="fb" d="M401.88 1143.87a.428.428 0 0 1-.172.315l-2.806 2.077a.43.43 0 1 1-.51-.69l2.469-1.827-3.675-5.222a.43.43 0 0 1 .702-.494l3.916 5.566a.427.427 0 0 1 .076.276zm0 0"/><path class="fd" d="M410.135 1144.59l.587-1.125a.429.429 0 0 0 .024-.34l-.473-1.347a12.4 12.4 0 0 0-10.87-8.379l-5.866-.41a.429.429 0 0 0-.394.2l-5.182 8.28a.428.428 0 0 0-.028.408l3.999 8.68a.429.429 0 0 0 .36.249l5.985.418a12.421 12.421 0 0 0 11.858-6.634zm-17.53 5.376l-3.794-8.237 4.923-7.863 5.607.392a11.54 11.54 0 0 1 10.121 7.8l.413 1.172-.503.962a11.562 11.562 0 0 1-11.036 6.176zm0 0"/><path class="fb" d="M544.025 681.397l-15.21 25.313a3.791 3.791 0 0 0-7.07-1.915 3.87 3.87 0 0 0-.18 3.658l-15.306-9.197a.744.744 0 1 0-.767 1.276l15.306 9.196a3.83 3.83 0 0 0-1.7.481 3.886 3.886 0 0 0-1.446 1.398 3.791 3.791 0 0 0 5.01 5.343l-2.727 4.54a.744.744 0 1 0 1.275.766l4.879-8.119 1.201 4.824a.744.744 0 1 0 1.444-.36l-1.202-4.82 8.21 4.932a.744.744 0 0 0 .766-1.275l-8.21-4.933 6.499-1.62a.744.744 0 1 0-.36-1.444l-6.499 1.62 17.364-28.897a.744.744 0 0 0-1.276-.767zm-21.397 33.718a2.309 2.309 0 0 1-3.7-2.742 2.4 2.4 0 0 1 .891-.864 2.316 2.316 0 0 1 1.917-.158l3.2 1.165zm4.55-7.573l-1.21 3.258-2.531-2.278a2.368 2.368 0 0 1 2.782-3.793 2.329 2.329 0 0 1 .96 2.813zm0 0"/><path class="fc" d="M521.38 672.75l-19.71 32.8a5 5 0 0 0 1.711 6.861l22.914 13.768a5 5 0 0 0 6.861-1.71l19.71-32.804a5 5 0 0 0-1.71-6.861l-22.914-13.768a5 5 0 0 0-6.863 1.714zm29.005 13.336a3.512 3.512 0 0 1 1.2 4.814l-19.708 32.8a3.512 3.512 0 0 1-4.814 1.2l-22.913-13.767a3.512 3.512 0 0 1-1.204-4.816l19.71-32.804a3.512 3.512 0 0 1 4.816-1.195zm0 0"/><rect class="fa" width="81" height="81" rx="18" transform="rotate(7 -971.33 12743.846)"/><rect class="fa" width="81" height="81" rx="18" transform="translate(1371.414 202)"/><rect class="fa" width="81" height="81" rx="18" transform="rotate(85 528.108 800.49)"/><rect class="fa" width="81" height="81" rx="18" transform="rotate(43 506.97 2743.43)"/><rect class="fa" width="81" height="81" rx="18" transform="rotate(25.97 286.723 4174.105)"/><rect class="fa" width="81" height="81" rx="18" transform="rotate(17 41.321 5814.846)"/><rect class="fa" width="81" height="81" rx="18" transform="rotate(72 390.681 878.498)"/><rect class="fa" width="81" height="81" rx="18" transform="rotate(64 231.035 902.728)"/><rect class="fa" width="81" height="81" rx="18" transform="rotate(47 -58.212 1089.386)"/><path class="fb" d="M1219.592 243.562l43.757-3.822a.732.732 0 1 0-.128-1.458l-43.757 3.822a.732.732 0 1 0 .128 1.458zm35.984 3.563a4.768 4.768 0 0 0-2.145.723 4.786 4.786 0 1 0 .74 8.473 4.786 4.786 0 1 0 1.405-9.196zm-7.269 5.44a3.322 3.322 0 1 1 3.599 3.02 3.321 3.321 0 0 1-3.599-3.02zm7.974 2.639a3.322 3.322 0 0 1-.85-.037 4.786 4.786 0 0 0-.559-6.4 3.321 3.321 0 1 1 1.41 6.437zm0 0"/><path class="fc" d="M1258.486 231.139l-35.423 3.094a4.921 4.921 0 0 0-4.469 5.324l1.82 20.836a4.921 4.921 0 0 0 5.324 4.469l35.423-3.094a4.921 4.921 0 0 0 4.472-5.325l-1.82-20.836a4.921 4.921 0 0 0-5.327-4.468zm5.686 25.432a3.455 3.455 0 0 1-3.138 3.738l-35.423 3.095a3.455 3.455 0 0 1-3.738-3.138l-1.82-20.837a3.455 3.455 0 0 1 3.137-3.738l35.423-3.094a3.455 3.455 0 0 1 3.739 3.138zm0 0"/><path class="fb" d="M1574.067 260.835a.841.841 0 0 1-.565-.32l-5.712-7.31a.849.849 0 0 1 1.337-1.046l5.203 6.661 12.161-9.06a.846.846 0 0 1 1.01 1.356l-12.826 9.557a.848.848 0 0 1-.608.162zm11.734 23.107a1.336 1.336 0 0 1-1.048-.755l-.008-.018-3.004-6.716-4.775-.587a.846.846 0 0 1 .206-1.679l5.244.644a.847.847 0 0 1 .668.493l2.964 6.61 4.475-5.697a.845.845 0 0 1 .768-.316l10.083 1.238a2.783 2.783 0 0 0 3.098-2.42l2.384-19.419a2.783 2.783 0 0 0-2.42-3.098l-5.998-.737a.846.846 0 0 1 .206-1.679l5.998.737a4.477 4.477 0 0 1 3.892 4.983l-2.385 19.422a4.477 4.477 0 0 1-4.984 3.894l-9.608-1.18-4.54 5.79-.012.016a1.337 1.337 0 0 1-1.2.478zm0 0"/><path class="fc" d="M1559.008 269.157l10.663 1.31 3.437 7.665.008.018a1.409 1.409 0 0 0 2.359.29l.012-.016 5.188-6.607 10.96 1.346a4.961 4.961 0 0 0 5.521-4.314l2.703-22.013a4.961 4.961 0 0 0-4.314-5.522l-32.628-4.006a4.961 4.961 0 0 0-5.522 4.314l-2.703 22.013a4.961 4.961 0 0 0 4.316 5.522zm.067-27.329a3.266 3.266 0 0 1 3.637-2.84l32.627 4.005a3.267 3.267 0 0 1 2.84 3.637l-2.702 22.012a3.267 3.267 0 0 1-3.637 2.845l-11.428-1.403a.846.846 0 0 0-.768.318l-5.186 6.603-3.433-7.67a.846.846 0 0 0-.668-.493l-11.143-1.369a3.267 3.267 0 0 1-2.84-3.636zm0 0"/><path class="fb" d="M2016.304 438.306a.67.67 0 0 1-.083-.943l4.547-5.416a5.646 5.646 0 1 0-8.649-7.26l-4.547 5.417a.67.67 0 1 1-1.024-.86l4.547-5.417a6.984 6.984 0 1 1 10.697 8.98l-4.547 5.417a.668.668 0 0 1-.941.082zm-4.102 17.348a5.972 5.972 0 0 1-.733-8.405l1.97-2.348a.67.67 0 0 1 1.025.86l-1.971 2.347a4.627 4.627 0 0 0 7.088 5.95l1.971-2.347a.67.67 0 1 1 1.024.86l-1.97 2.347a5.972 5.972 0 0 1-8.404.736zm0 0"/><path class="fc" d="M2027.385 453.258l.007-.01a2.26 2.26 0 0 0-.485-2.914l-7.257-6.092 3.06-4.889.006-.007a2.567 2.567 0 0 0-.55-3.307l-14.324-12.024a2.567 2.567 0 0 0-3.354.03l-.008.009-19.191 17.31a.591.591 0 0 0-.064.068 4.5 4.5 0 0 0 .553 6.326l9.46 7.942a3.88 3.88 0 0 0 1.007 4.631l14.115 11.849a3.878 3.878 0 0 0 5.458-.476.64.64 0 0 0 .054-.076zm-31.348 1.365l-9.4-7.89a3.156 3.156 0 0 1-.415-4.407l19.15-17.274a1.235 1.235 0 0 1 1.61-.013l14.324 12.024a1.235 1.235 0 0 1 .268 1.588l-2.96 4.723-3.722-3.125a2.26 2.26 0 0 0-2.952.028l-.008.01zm15.183 16.532l-14.114-11.848a2.54 2.54 0 0 1-.34-3.54l16.053-14.483a.93.93 0 0 1 1.21-.007l12.015 10.085a.93.93 0 0 1 .202 1.193l-11.481 18.321a2.54 2.54 0 0 1-3.545.279zm0 0"/><path class="fb" d="M780.008 415.294a.856.856 0 0 0-.648.497l-6.656 14.922-16.666 3.831a.856.856 0 0 0 .38 1.666l16.595-3.81 21.472 23.847-15.664 3.6a.858.858 0 0 0 .385 1.671l17.082-3.926.036-.011a.5.5 0 0 0 .048-.015c.021-.007.043-.016.063-.025s.03-.011.042-.019.044-.024.065-.036l.036-.022a.838.838 0 0 0 .073-.057l.016-.015a.945.945 0 0 0 .07-.072l.017-.016a.768.768 0 0 0 .048-.064l.017-.026q.02-.033.038-.067l.013-.027.008-.007 6.83-15.313a.857.857 0 0 0-.147-.922l-22.787-25.307a.856.856 0 0 0-.77-.273zm21.908 26.308l-6.066 13.602-21.53-23.911 6.067-13.602zm0 0"/><path class="fc" d="M779.65 460.108l-22.783-25.302a.856.856 0 0 0-1.416.221l-6.832 15.316a.856.856 0 0 0 .146.922l22.783 25.302a.856.856 0 0 0 1.415-.22l6.83-15.314a.857.857 0 0 0-.145-.922zm-1.645.732l-6.065 13.604-21.53-23.912 6.066-13.602zm0 0"/><path class="fb" d="M922.735 360.632a.807.807 0 0 1-.676.038l-6.12-2.409a.81.81 0 1 1 .59-1.509l5.386 2.12 4.677-11.095a.809.809 0 1 1 1.491.63l-4.985 11.824a.805.805 0 0 1-.363.401zm0 0"/><path class="fc" d="M929.833 374.55l2.385-.186a.808.808 0 0 0 .568-.302l1.68-2.104a23.374 23.374 0 0 0 2.532-25.747l-5.205-9.79a.809.809 0 0 0-.713-.429l-18.41-.012a.807.807 0 0 0-.68.361l-9.886 15.064a.809.809 0 0 0-.038.824l5.31 9.986a23.42 23.42 0 0 0 22.457 12.335zm-26.114-22.659l9.386-14.299 17.487.017 4.977 9.36a21.759 21.759 0 0 1-2.36 23.974l-.004.003-1.464 1.83-2.035.158a21.8 21.8 0 0 1-20.901-11.479zm0 0"/><path class="fb" d="M1728.746 295.127a.79.79 0 0 1-.364-.234l-17.584-19.829a.792.792 0 1 1 1.184-1.05l17.262 19.466 25.206-6.483a.792.792 0 1 1 .394 1.534l-25.67 6.604a.79.79 0 0 1-.428-.01zm0 0"/><path class="fc" d="M1752.283 282.127l-35.782-10.94a4.705 4.705 0 0 0-5.868 3.121l-6.94 22.697a4.705 4.705 0 0 0 3.12 5.869l35.783 10.94a4.706 4.706 0 0 0 5.869-3.121l6.939-22.697a4.706 4.706 0 0 0-3.12-5.869zm-5.332 28.103a3.121 3.121 0 0 1-3.892 2.069l-35.782-10.94a3.121 3.121 0 0 1-2.07-3.891l6.94-22.697a3.12 3.12 0 0 1 3.891-2.07l35.783 10.94a3.12 3.12 0 0 1 2.069 3.892zm0 0"/><path class="fb" d="M1081.416 292.057l-.102.033a10.018 10.018 0 0 1-7.813-.773 10.655 10.655 0 0 1-4.42-14.115 10.022 10.022 0 0 1 5.974-5.09 10.353 10.353 0 0 1 12.874 6.937 10.534 10.534 0 0 1-.639 7.95 10.02 10.02 0 0 1-5.87 5.062zm-6.083-18.738a8.8 8.8 0 0 0-5.153 4.44 9.422 9.422 0 0 0 3.905 12.474 8.8 8.8 0 0 0 12.104-3.79 9.308 9.308 0 0 0 .557-7.023 9.118 9.118 0 0 0-11.326-6.13l-.095.03zm0 0"/><path class="fc" d="M1070.862 298.184l14.62 8.038a.7.7 0 0 0 .976-.317l7.102-15.096a17.82 17.82 0 0 0 1.763-6.957 16.555 16.555 0 0 0-1.155-6.79 17.558 17.558 0 0 0-8.293-9.112 16.5 16.5 0 0 0-22.231 7.223 17.56 17.56 0 0 0-1.352 12.246 16.555 16.555 0 0 0 3.056 6.172 17.828 17.828 0 0 0 5.515 4.592zm-7.206-11.109a16.152 16.152 0 0 1 1.242-11.264 15.1 15.1 0 0 1 20.335-6.608 16.15 16.15 0 0 1 7.627 8.383 15.151 15.151 0 0 1 1.054 6.215 16.42 16.42 0 0 1-1.627 6.405l-6.784 14.422-13.963-7.681a16.43 16.43 0 0 1-5.085-4.227 15.159 15.159 0 0 1-2.8-5.649zm0 0"/><path class="fc" d="M1075.225 283.585l2.64-.858.858 2.64a.573.573 0 1 0 1.089-.353l-.858-2.64 2.495-.811a.573.573 0 1 0-.353-1.09l-2.496.812-.81-2.496a.573.573 0 1 0-1.09.354l.812 2.498-2.64.858a.573.573 0 1 0 .354 1.09zm0 0M1431.094 236.181l-4.231-3.08v-7.177a.617.617 0 0 0-.617-.617h-4.343a.617.617 0 0 0-.617.617v3.121l-10.764-7.836a.617.617 0 0 0-.726 0l-20.571 14.972a.617.617 0 0 0 .363 1.116h5.408v23.684a.617.617 0 0 0 .617.617h23.5a.617.617 0 1 0 0-1.234h-22.885v-23.683a.617.617 0 0 0-.617-.617h-4.127l18.675-13.6 18.749 13.65-4.222.127a.616.616 0 0 0-.6.617v5.652a.617.617 0 1 0 1.234 0v-5.046l5.426-.163a.617.617 0 0 0 .345-1.116zm-8.574-9.64h3.109v5.666l-3.109-2.263zm0 0"/><path class="fb" d="M1423.625 256.345a.428.428 0 0 1-.326-.15l-2.267-2.654a.43.43 0 1 1 .653-.557l1.994 2.335 4.953-4.03a.43.43 0 0 1 .542.666l-5.279 4.294a.427.427 0 0 1-.27.096zm0 0"/><path class="fd" d="M1423.483 264.63l1.163.507a.429.429 0 0 0 .341 0l1.311-.566a12.4 12.4 0 0 0 7.6-11.428v-5.88a.429.429 0 0 0-.227-.379l-8.622-4.592a.428.428 0 0 0-.408 0l-8.38 4.595a.429.429 0 0 0-.223.376v6a12.421 12.421 0 0 0 7.445 11.367zm-6.586-17.113l7.953-4.359 8.187 4.362v5.621a11.54 11.54 0 0 1-7.074 10.641l-1.141.493-.995-.434a11.562 11.562 0 0 1-6.931-10.579zm0 0"/><path class="fb" d="M1894.887 365.884l-26.312-13.407a3.791 3.791 0 0 0 1.417-7.187 3.87 3.87 0 0 0-3.662.076l8.107-15.911a.744.744 0 1 0-1.326-.676l-8.107 15.91a3.83 3.83 0 0 0-.598-1.663 3.886 3.886 0 0 0-1.495-1.344 3.791 3.791 0 0 0-4.981 5.371l-4.719-2.404a.744.744 0 1 0-.675 1.326l8.44 4.3-4.729 1.535a.744.744 0 1 0 .46 1.414l4.725-1.535-4.349 8.534a.744.744 0 0 0 1.326.676l4.349-8.534 2.07 6.37a.744.744 0 1 0 1.414-.46l-2.07-6.37 30.039 15.306a.744.744 0 0 0 .675-1.326zm-35.129-18.994a2.309 2.309 0 0 1 2.478-3.882 2.4 2.4 0 0 1 .924.83 2.316 2.316 0 0 1 .291 1.9l-.939 3.274zm7.872 4.011l-3.334-.979 2.095-2.684a2.368 2.368 0 0 1 3.979 2.51 2.329 2.329 0 0 1-2.74 1.153zm0 0"/><path class="fc" d="M1901.933 342.69l-34.095-17.373a5 5 0 0 0-6.725 2.185l-12.136 23.818a5 5 0 0 0 2.185 6.725l34.098 17.375a5 5 0 0 0 6.725-2.185l12.137-23.818a5 5 0 0 0-2.19-6.727zm-11.28 29.866a3.512 3.512 0 0 1-4.719 1.533l-34.095-17.373a3.512 3.512 0 0 1-1.533-4.718l12.136-23.818a3.512 3.512 0 0 1 4.72-1.537l34.099 17.375a3.512 3.512 0 0 1 1.528 4.72zm0 0"/><rect class="fa" width="81" height="81" rx="18" transform="rotate(90.97 583.275 1852.263)"/><rect class="fa" width="81" height="81" rx="18" transform="rotate(84 594.091 1917.035)"/><rect class="fa" width="81" height="81" rx="18" transform="rotate(169 1163.34 634.165)"/><rect class="fa" width="81" height="81" rx="18" transform="rotate(127 714.773 1465.832)"/><rect class="fa" width="81" height="81" rx="18" transform="rotate(110 631.169 1648.176)"/><rect class="fa" width="81" height="81" rx="18" transform="rotate(101 615.323 1731.65)"/><rect class="fa" width="81" height="81" rx="18" transform="rotate(156 1096.075 684.659)"/><rect class="fa" width="81" height="81" rx="18" transform="rotate(148 1046.852 683.317)"/><rect class="fa" width="81" height="81" rx="18" transform="rotate(131 968.714 776.85)"/><path class="fb" d="M2381.316 979.17l8.39 43.143a.732.732 0 1 0 1.439-.28l-8.392-43.142a.732.732 0 1 0-1.437.28zm.227 36.182a4.77 4.77 0 0 0-.945-2.058 4.789 4.789 0 1 0-8.353 1.625 4.789 4.789 0 1 0 9.298.433zm-6.175-6.662a3.324 3.324 0 1 1-2.629 3.897 3.323 3.323 0 0 1 2.629-3.897zm-1.79 8.211a3.324 3.324 0 0 1-.052-.85 4.789 4.789 0 0 0 6.31-1.227 3.323 3.323 0 1 1-6.258 2.077zm0 0"/><path class="fc" d="M2397.756 1016.572l-6.792-34.925a4.924 4.924 0 0 0-5.767-3.889l-20.543 3.996a4.924 4.924 0 0 0-3.889 5.767l6.793 34.924a4.924 4.924 0 0 0 5.767 3.892l20.544-3.996a4.924 4.924 0 0 0 3.887-5.77zm-24.711 8.324a3.457 3.457 0 0 1-4.05-2.73l-6.792-34.925a3.457 3.457 0 0 1 2.73-4.05l20.544-3.995a3.457 3.457 0 0 1 4.049 2.73l6.793 34.925a3.457 3.457 0 0 1-2.73 4.05zm0 0"/><g><path class="fb" d="M2401.2 1333.52a.841.841 0 0 1 .258-.597l6.673-6.448a.849.849 0 0 1 1.18 1.22l-6.08 5.875 10.29 11.144a.846.846 0 0 1-1.244 1.147l-10.852-11.754a.848.848 0 0 1-.225-.588zm-21.751 14.097a1.336 1.336 0 0 1 .641-1.123l.017-.01 6.365-3.693.082-4.81a.846.846 0 0 1 1.692.028l-.09 5.283a.847.847 0 0 1-.42.717l-6.264 3.642 6.136 3.852a.845.845 0 0 1 .396.731l-.173 10.16a2.783 2.783 0 0 0 2.733 2.827l19.564.332a2.783 2.783 0 0 0 2.827-2.733l.103-6.043a.846.846 0 0 1 1.692.03l-.103 6.042a4.478 4.478 0 0 1-4.548 4.394l-19.568-.333a4.478 4.478 0 0 1-4.396-4.548l.165-9.68-6.235-3.908-.017-.01a1.337 1.337 0 0 1-.602-1.144zm0 0"/><path class="fc" d="M2391.342 1319.415l-.183 10.744-7.264 4.222-.017.01a1.41 1.41 0 0 0-.04 2.377l.016.01 7.117 4.467-.188 11.042a4.962 4.962 0 0 0 4.87 5.039l22.179.377a4.962 4.962 0 0 0 5.039-4.871l.559-32.873a4.962 4.962 0 0 0-4.871-5.04l-22.178-.376a4.962 4.962 0 0 0-5.04 4.872zm27.188-2.803a3.266 3.266 0 0 1 3.208 3.32l-.56 32.871a3.267 3.267 0 0 1-3.318 3.208l-22.178-.377a3.267 3.267 0 0 1-3.211-3.319l.196-11.514a.846.846 0 0 0-.397-.73l-7.112-4.465 7.269-4.22a.846.846 0 0 0 .42-.717l.19-11.226a3.267 3.267 0 0 1 3.32-3.207zm0 0"/></g><g><path class="fb" d="M2270.927 1791.875a.669.669 0 0 1 .929-.18l5.862 3.954a5.645 5.645 0 1 0 6.314-9.36l-5.863-3.955a.669.669 0 1 1 .748-1.109l5.862 3.955a6.983 6.983 0 1 1-7.809 11.577l-5.863-3.954a.668.668 0 0 1-.18-.928zm-17.68-2.262a5.971 5.971 0 0 1 8.281-1.61l2.541 1.715a.669.669 0 0 1-.747 1.108l-2.541-1.714a4.627 4.627 0 0 0-5.175 7.672l2.54 1.714a.669.669 0 1 1-.747 1.108l-2.54-1.714a5.971 5.971 0 0 1-1.612-8.28zm0 0"/><path class="fc" d="M2257.22 1804.46l.01.006a2.26 2.26 0 0 0 2.847-.787l5.298-7.854 5.181 2.53.009.005a2.567 2.567 0 0 0 3.23-.892l10.457-15.504a2.567 2.567 0 0 0-.38-3.331l-.01-.007-19.224-17.271a.591.591 0 0 0-.073-.057 4.5 4.5 0 0 0-6.233 1.212l-6.907 10.24a3.88 3.88 0 0 0-4.5 1.485l-10.304 15.276a3.878 3.878 0 0 0 1.045 5.378.639.639 0 0 0 .08.046zm-4.64-31.03l6.861-10.172a3.156 3.156 0 0 1 4.34-.875l19.181 17.235a1.235 1.235 0 0 1 .182 1.599l-10.457 15.503a1.235 1.235 0 0 1-1.551.432l-5.006-2.449 2.717-4.028a2.26 2.26 0 0 0-.337-2.933l-.01-.006zm-14.85 16.83l10.304-15.276a2.539 2.539 0 0 1 3.484-.71l16.083 14.448a.929.929 0 0 1 .134 1.203l-8.77 13.003a.929.929 0 0 1-1.166.326l-19.42-9.498a2.539 2.539 0 0 1-.649-3.496zm0 0"/></g><g><path class="fb" d="M2164.58 559.942a.856.856 0 0 0-.562-.592l-15.535-5.06-5.553-16.174a.856.856 0 0 0-1.617.552l5.525 16.105-21.473 23.848-5.218-15.202a.858.858 0 0 0-1.622.558l5.691 16.578c.004.012.01.023.015.034a.5.5 0 0 0 .019.046c.01.02.02.042.031.06s.015.028.024.04l.043.06.025.035a.838.838 0 0 0 .065.066l.016.015a.945.945 0 0 0 .08.061l.016.016a.768.768 0 0 0 .07.04l.027.015.07.03.029.011.007.007 15.943 5.192a.857.857 0 0 0 .902-.242l22.787-25.308a.856.856 0 0 0 .19-.795zm-23.873 24.539l-14.162-4.612 21.53-23.91 14.161 4.611zm0 0"/><path class="fc" d="M2119.974 564.27l22.782-25.302a.856.856 0 0 0-.368-1.385l-15.946-5.194a.856.856 0 0 0-.901.242l-22.783 25.302a.856.856 0 0 0 .368 1.385l15.943 5.192a.857.857 0 0 0 .902-.242zm-.9-1.559l-14.164-4.61 21.531-23.912 14.162 4.612zm0 0"/></g><g><path class="fb" d="M2233.862 696.174a.807.807 0 0 1-.109-.67l1.756-6.337a.81.81 0 1 1 1.563.43l-1.546 5.577 11.523 3.492a.809.809 0 1 1-.469 1.549l-12.28-3.722a.805.805 0 0 1-.438-.32zm0 0"/><path class="fc" d="M2220.762 704.687l.434 2.353a.808.808 0 0 0 .36.534l2.268 1.45a23.374 23.374 0 0 0 25.871-.173l9.192-6.2a.809.809 0 0 0 .352-.754l-1.912-18.31a.807.807 0 0 0-.43-.638l-16.015-8.258a.809.809 0 0 0-.823.049l-9.377 6.324a23.42 23.42 0 0 0-9.92 23.623zm19.805-28.338l15.202 7.84 1.81 17.392-8.787 5.928a21.759 21.759 0 0 1-24.09.16l-.003-.005-1.974-1.265-.369-2.006a21.8 21.8 0 0 1 9.231-21.987zm0 0"/></g><g><path class="fb" d="M2383.248 1490.929a.79.79 0 0 1 .195-.387l17.89-19.567a.792.792 0 1 1 1.17 1.069l-17.565 19.208 9.083 24.401a.792.792 0 1 1-1.484.552l-9.253-24.85a.79.79 0 0 1-.035-.427zm0 0"/><path class="fc" d="M2398.64 1512.989l7.147-36.744a4.707 4.707 0 0 0-3.718-5.513l-23.307-4.533a4.707 4.707 0 0 0-5.513 3.718l-7.146 36.743a4.708 4.708 0 0 0 3.717 5.513l23.307 4.533a4.708 4.708 0 0 0 5.513-3.717zm-28.517-2.37a3.122 3.122 0 0 1-2.465-3.656l7.147-36.744a3.122 3.122 0 0 1 3.655-2.466l23.307 4.534a3.121 3.121 0 0 1 2.465 3.656l-7.146 36.743a3.121 3.121 0 0 1-3.657 2.466zm0 0"/></g><g><path class="fb" d="M2318.648 846.818l-.043-.098a10.018 10.018 0 0 1-.049-7.851 10.655 10.655 0 0 1 13.576-5.87 10.022 10.022 0 0 1 5.687 5.408 10.353 10.353 0 0 1-5.554 13.529 10.534 10.534 0 0 1-7.973.195 10.02 10.02 0 0 1-5.648-5.31zm18-8.008a8.8 8.8 0 0 0-4.955-4.661 9.422 9.422 0 0 0-11.997 5.188 8.8 8.8 0 0 0 5.034 11.64 9.308 9.308 0 0 0 7.043-.18 9.118 9.118 0 0 0 4.912-11.904l-.04-.091zm0 0"/><path class="fc" d="M2311.452 836.963l-6.467 15.38a.7.7 0 0 0 .417.937l15.757 5.486a17.82 17.82 0 0 0 7.103 1.025 16.555 16.555 0 0 0 6.632-1.858 17.558 17.558 0 0 0 8.195-9.2 16.5 16.5 0 0 0-9.508-21.355 17.56 17.56 0 0 0-12.32-.064 16.555 16.555 0 0 0-5.818 3.685 17.828 17.828 0 0 0-3.99 5.965zm10.294-8.328a16.152 16.152 0 0 1 11.333.057 15.1 15.1 0 0 1 8.696 19.534 16.15 16.15 0 0 1-7.539 8.46 15.151 15.151 0 0 1-6.071 1.7 16.42 16.42 0 0 1-6.54-.95l-15.052-5.239 6.18-14.69a16.43 16.43 0 0 1 3.672-5.498 15.159 15.159 0 0 1 5.325-3.376zm0 0"/><path class="fc" d="M2326.426 839.775l1.13 2.536-2.537 1.13a.573.573 0 1 0 .466 1.045l2.536-1.129 1.067 2.397a.573.573 0 1 0 1.046-.465l-1.067-2.397 2.397-1.068a.573.573 0 1 0-.466-1.046l-2.4 1.069-1.129-2.536a.573.573 0 1 0-1.046.466zm0 0"/></g><g><path class="fc" d="M2410.769 1188.74l2.62-4.53 7.138-.75a.617.617 0 0 0 .55-.679l-.455-4.319a.617.617 0 0 0-.678-.549l-3.104.326 6.668-11.524a.617.617 0 0 0-.076-.722l-17.04-18.893a.617.617 0 0 0-1.072.478l.566 5.378-23.555 2.476a.617.617 0 0 0-.549.678l2.457 23.371a.617.617 0 1 0 1.227-.129l-2.392-22.76 23.553-2.475a.617.617 0 0 0 .55-.678l-.432-4.105 15.477 17.151-11.615 20.074-.568-4.186a.616.616 0 0 0-.676-.532l-5.621.59a.617.617 0 1 0 .129 1.228l5.018-.528.73 5.38a.617.617 0 0 0 1.145.226zm8.69-9.535l.326 3.092-5.635.592 1.925-3.328zm0 0"/><path class="fb" d="M2389.934 1183.42a.428.428 0 0 1 .116-.34l2.402-2.533a.43.43 0 1 1 .622.592l-2.114 2.227 4.526 4.504a.43.43 0 0 1-.606.609l-4.822-4.801a.427.427 0 0 1-.124-.259zm0 0"/><path class="fd" d="M2381.68 1184.144l-.383 1.21a.429.429 0 0 0 .036.339l.7 1.244a12.4 12.4 0 0 0 12.16 6.364l5.848-.614a.429.429 0 0 0 .353-.266l3.665-9.055a.428.428 0 0 0-.042-.405l-5.446-7.854a.429.429 0 0 0-.397-.183l-5.967.628a12.421 12.421 0 0 0-10.527 8.592zm16.33-8.339l5.167 7.454-3.482 8.598-5.59.588a11.54 11.54 0 0 1-11.322-5.923l-.61-1.083.328-1.035a11.562 11.562 0 0 1 9.796-8zm0 0"/></g><g><path class="fb" d="M2330.257 1663.55l10.583-27.57a3.791 3.791 0 0 0 7.295.66 3.87 3.87 0 0 0-.458-3.635l16.671 6.399a.744.744 0 1 0 .534-1.39l-16.67-6.398a3.83 3.83 0 0 0 1.59-.769 3.886 3.886 0 0 0 1.181-1.627 3.791 3.791 0 0 0-5.862-4.393l1.898-4.944a.744.744 0 1 0-1.39-.533l-3.394 8.843-2.02-4.542a.744.744 0 1 0-1.36.605l2.021 4.539-8.941-3.433a.744.744 0 0 0-.534 1.39l8.942 3.432-6.119 2.724a.744.744 0 1 0 .606 1.36l6.118-2.725-12.081 31.474a.744.744 0 0 0 1.389.533zm15.217-36.921a2.309 2.309 0 0 1 4.12 2.058 2.4 2.4 0 0 1-.728 1.006 2.316 2.316 0 0 1-1.86.488l-3.354-.592zm-3.166 8.248l.625-3.418 2.889 1.803a2.368 2.368 0 0 1-2.081 4.22 2.329 2.329 0 0 1-1.433-2.605zm0 0"/><path class="fc" d="M2354.06 1668.133l13.714-35.724a5 5 0 0 0-2.876-6.46l-24.957-9.58a5 5 0 0 0-6.46 2.876l-13.714 35.728a5 5 0 0 0 2.876 6.46l24.956 9.58a5 5 0 0 0 6.461-2.88zm-30.881-8.096a3.512 3.512 0 0 1-2.018-4.533l13.713-35.724a3.512 3.512 0 0 1 4.532-2.018l24.957 9.58a3.512 3.512 0 0 1 2.022 4.534l-13.715 35.728a3.512 3.512 0 0 1-4.535 2.012zm0 0"/></g></g></symbol></svg>