<?xml version="1.0" encoding="utf-8"?><svg xmlns="http://www.w3.org/2000/svg" xmlns:xlink="http://www.w3.org/1999/xlink"><symbol id="Logo" viewBox="0 0 1104.4 457" xml:space="preserve" xmlns="http://www.w3.org/2000/svg"><style>.ast3{fill:#707070}.ast4{fill:#fff}.ast5{fill:#141414}</style><circle cx="227.7" cy="227.7" r="220.2" id="aLogo_black-1_2_"/><path class="ast3" d="M720.7 437.3h-27c-9.8 0-17.7-7.8-18-18h9c0 5 4 9 9 9h27c5 0 9-4.1 9-9 0-5-4.1-9-9-9h-27c-9.6 0-18-7.8-18-18 0-9.5 7.9-18 18-18h27c9.6 0 17.7 8 18 18h-9c0-5-4.1-9-9-9h-27c-5 0-9 4.1-9 9 0 5 4 9 9 9h27c9.5 0 18 8 18 18 0 9.6-7.9 18-18 18zm74.1-54v54h-9v-54h-27v-9h63v9h-27zm100.1-9h9v45c0 9.5-7.9 18-18 18h-27c-9.6 0-18-7.8-18-18v-45h9v45c0 5 4.1 9 9 9h27c5 0 9-4.1 9-9v-45zm92 45c0 9.5-7.9 18-18 18h-45v-63h45c9.6 0 17.7 8 18 18v27zm-9-27c0-5-4.1-9-9-9h-36v45h36c5 0 9-4.1 9-9v-27zm28-18h9v63h-9v-63zm91.1 45c0 9.9-8.1 18-18 18h-27c-10 0-18-8-18-18v-27c0-9.9 8.1-18 18-18h27c9.5 0 18 8.2 18 18v27zm-9-27c0-5-4.1-9-9-9h-27c-5 0-9 4.1-9 9v27c0 5 4 9 9 9h27c5 0 9-4.1 9-9v-27z"/><path class="ast4" d="M189.3 137H110c-25 0-45.3 18.3-50.1 41l27.1 9.6v-.4c.5-13.7 11.7-24.7 25.5-24.7h74.1c14.1 0 25.6 11.5 25.6 25.6h28.2c-.8-28.4-23.8-51.1-51.1-51.1zM61.5 216.4l25.5 9.7.3-10-25.8-9.5-2.6-1v9.8l2.6 1zm0-18.9l25.6 9.8.2-10.1-25.8-9.6-2.5-.9c0 .5-.1.9-.1 1.4v8.4l2.6 1zM87 245v-10l-25.5-9.5-2.6-1v9.8l14.7 5.6z"/><path class="ast4" d="M138.2 213.7h-2.6v25.6h76.7v25.6c0 14.1-11.5 25.6-25.6 25.6h-74.1C98.5 290.5 87 279 87 264.9V253l-2.6-1-25.5-9.9v22.7c0 28.9 23.8 51.1 51.1 51.1h79.3c28.6 0 51.1-24 51.1-51.1v-51.1H138.2zm228.6-28.6h-92.1v129.6h20.5v-37h56.3l35.8 37h15.3v-13.1l-24.9-25.7c14.8-5.2 24.9-19.4 24.9-35.2v-18.5c0-20.6-17-37.1-35.8-37.1zm-71.5 74.1v-55.5h69c9.8 0 17.9 8.3 17.9 18.5v18.5c0 10.2-8.1 18.5-17.9 18.5h-69z"/><path class="ast5" d="M474.1 185.1h-2.6v129.6h127.8v-18.5H492v-37h89.5v-18.5H492v-37.1h107.3v-18.5h-2.5zm166.6 0h-2.6v129.6h127.8v-18.5H658.6v-37H748v-18.5h-89.4v-37.1h107.3v-18.5h-2.6zm273.9 0H912v95.3l-86.8-95.3h-20.5v129.6h20.5V218l86.8 96.7h20.5V185.1h-2.6zm147.8 55.6h-53.7c-9.8 0-17.9-8.3-17.9-18.5s8.1-18.5 17.9-18.5h51.1c9.8 0 17.9 8.3 17.9 18.5h20.5c-.5-20.6-16.6-37-35.8-37h-56.3c-20 0-35.8 17.4-35.8 37 0 20.9 16.6 37 35.8 37h53.7c9.8 0 17.9 8.3 17.9 18.5s-8.1 18.5-17.9 18.5h-51.1c-9.8 0-17.9-8.3-17.9-18.5h-20.5c.5 20.9 16.3 37 35.8 37h56.3c20 0 35.8-17.4 35.8-37 0-20.6-17-37-35.8-37z"/></symbol><symbol viewBox="0 0 384 384" id="triangle" xmlns="http://www.w3.org/2000/svg"><path d="M0 21.333l192 341.333L384 21.333H0zM72 64h240L192 277.333 72 64z"/></symbol></svg>